<svg xmlns="http://www.w3.org/2000/svg" width="19.636" height="19.636" viewBox="0 0 19.636 19.636">
  <path id="Acceso" d="M17.93,0H16.159a2.429,2.429,0,0,0-1.73.717L7.609,7.536a6.147,6.147,0,1,0,4.417,4.417l1.011-1.011V8.972h2.447V6.525h1.969l1.392-1.392A2.433,2.433,0,0,0,19.561,3.4V1.631A1.631,1.631,0,0,0,17.93,0Zm0,3.4a.816.816,0,0,1-.239.577l-.914.914H13.852V7.341H11.405v2.924l-1.26,1.26a4.6,4.6,0,0,1,.445,1.933A4.486,4.486,0,1,1,6.1,8.972a3.455,3.455,0,0,1,1.932.444L15.582,1.87a.823.823,0,0,1,.577-.239H17.93ZM4.064,14.681a.816.816,0,1,0,.816-.816A.816.816,0,0,0,4.064,14.681Z" transform="translate(0.074)" fill="#f1efec"/>
</svg>
