<svg xmlns="http://www.w3.org/2000/svg" width="17.353" height="17.357" viewBox="0 0 17.353 17.357">
  <path id="exclamacion-de-diamante" d="M16.3,6.116,11.237,1.053a3.616,3.616,0,0,0-5.114,0L1.061,6.116a3.619,3.619,0,0,0,0,5.112l5.062,5.063a3.616,3.616,0,0,0,5.114,0L16.3,11.229a3.615,3.615,0,0,0,0-5.112Zm-1.023,4.09-5.062,5.063a2.223,2.223,0,0,1-3.069,0L2.084,10.206a2.171,2.171,0,0,1,0-3.067L7.146,2.076a2.17,2.17,0,0,1,3.069,0l5.062,5.063a2.169,2.169,0,0,1,0,3.067ZM9.764,11.931a1.085,1.085,0,1,1-1.085-1.085A1.085,1.085,0,0,1,9.764,11.931ZM7.956,9.038V5.061a.723.723,0,0,1,1.446,0V9.038a.723.723,0,1,1-1.446,0Z" transform="translate(-0.004 0.006)" fill="#f1efec"/>
</svg>
