<svg xmlns="http://www.w3.org/2000/svg" width="18" height="13.5" viewBox="0 0 18 13.5">
  <g id="Boleta" transform="translate(18 -3) rotate(90)">
    <path id="Trazado_5" data-name="Trazado 5" d="M12.75,0h-.1A1.515,1.515,0,0,0,11.2,1.149a1.5,1.5,0,0,1-2.893,0A1.515,1.515,0,0,0,6.847,0h-.1A3.754,3.754,0,0,0,3,3.75v12A2.25,2.25,0,0,0,5.25,18h1.6A1.515,1.515,0,0,0,8.3,16.851a1.5,1.5,0,0,1,2.893,0A1.515,1.515,0,0,0,12.653,18h1.6a2.25,2.25,0,0,0,2.25-2.25v-12A3.755,3.755,0,0,0,12.75,0Zm1.5,16.5-1.607-.047a3,3,0,0,0-5.8.047H5.25a.75.75,0,0,1-.75-.75v-3H6a.75.75,0,0,0,0-1.5H4.5V3.75A2.25,2.25,0,0,1,6.75,1.5l.107.047A3.008,3.008,0,0,0,9.75,3.75,3.053,3.053,0,0,0,12.67,1.5h.08A2.25,2.25,0,0,1,15,3.75v7.5H13.5a.75.75,0,0,0,0,1.5H15v3A.75.75,0,0,1,14.25,16.5Z" fill="#f1efec"/>
    <path id="Trazado_6" data-name="Trazado 6" d="M12.25,15h-1.5a.75.75,0,0,0,0,1.5h1.5a.75.75,0,0,0,0-1.5Z" transform="translate(-1.75 -3.75)" fill="#f1efec"/>
  </g>
</svg>
