<svg xmlns="http://www.w3.org/2000/svg" width="19.519" height="17.416" viewBox="0 0 19.519 17.416">
  <g id="_01_align_center" data-name="01 align center" transform="translate(0 -1.293)">
    <path id="Trazado_4" data-name="Trazado 4" d="M19.374,9.335h0A12.8,12.8,0,0,0,16,4.911l2.466-2.466L17.318,1.293,14.639,3.969A9.583,9.583,0,0,0,9.76,2.681c-6.1,0-8.9,5.092-9.614,6.654a1.6,1.6,0,0,0,0,1.334,12.8,12.8,0,0,0,3.371,4.424L1.052,17.559l1.15,1.15L4.88,16.033a9.583,9.583,0,0,0,4.88,1.287c6.1,0,8.9-5.092,9.614-6.654A1.6,1.6,0,0,0,19.374,9.335ZM1.627,10.01c.61-1.338,3-5.7,8.133-5.7a8.009,8.009,0,0,1,3.674.869L12,6.612A4.06,4.06,0,0,0,6.371,12.24L4.68,13.931A11.1,11.1,0,0,1,1.627,10.01ZM12.2,10a2.44,2.44,0,0,1-2.44,2.44A2.4,2.4,0,0,1,8.715,12.2l3.241-3.241A2.4,2.4,0,0,1,12.2,10ZM7.32,10a2.44,2.44,0,0,1,2.44-2.44,2.4,2.4,0,0,1,1.045.244L7.564,11.046A2.4,2.4,0,0,1,7.32,10Zm2.44,5.693a8.009,8.009,0,0,1-3.674-.869L7.521,13.39a4.06,4.06,0,0,0,5.628-5.628l1.69-1.69A11.048,11.048,0,0,1,17.893,10C17.271,11.349,14.877,15.694,9.76,15.694Z" fill="#f1efec"/>
  </g>
</svg>
