<svg xmlns="http://www.w3.org/2000/svg" width="18.434" height="18.434" viewBox="0 0 18.434 18.434">
  <path id="editar" d="M17.618.905a2.8,2.8,0,0,0-3.95,0L1.129,13.443A3.83,3.83,0,0,0,0,16.168v1.583a.771.771,0,0,0,.771.771H2.354a3.828,3.828,0,0,0,2.725-1.129L17.618,4.855a2.8,2.8,0,0,0,0-3.949ZM3.989,16.3a2.33,2.33,0,0,1-1.635.677H1.542v-.812a2.3,2.3,0,0,1,.678-1.635l9.515-9.515,1.773,1.773ZM16.527,3.764,14.595,5.7,12.822,3.928,14.754,2a1.252,1.252,0,0,1,1.769,1.773Z" transform="translate(0 -0.088)" fill="#4b3c8c"/>
</svg>
