<svg xmlns="http://www.w3.org/2000/svg" width="18" height="18" viewBox="0 0 18 18">
  <path id="Evento" d="M6,9H4.5A1.5,1.5,0,0,0,3,10.5V12a1.5,1.5,0,0,0,1.5,1.5H6A1.5,1.5,0,0,0,7.5,12V10.5A1.5,1.5,0,0,0,6,9ZM4.5,12V10.5H6V12ZM14.25,1.5H13.5V.75a.75.75,0,1,0-1.5,0V1.5H6V.75a.75.75,0,0,0-1.5,0V1.5H3.75A3.754,3.754,0,0,0,0,5.25v9A3.754,3.754,0,0,0,3.75,18h10.5A3.754,3.754,0,0,0,18,14.25v-9A3.754,3.754,0,0,0,14.25,1.5ZM3.75,3h10.5A2.253,2.253,0,0,1,16.5,5.25V6H1.5V5.25A2.253,2.253,0,0,1,3.75,3Zm10.5,13.5H3.75A2.253,2.253,0,0,1,1.5,14.25V7.5h15v6.75A2.253,2.253,0,0,1,14.25,16.5Z" fill="#f1efec"/>
</svg>
