<svg xmlns="http://www.w3.org/2000/svg" width="18.396" height="18.434" viewBox="0 0 18.396 18.434">
  <path id="Gestion_de_proyectos" data-name="Gestion de proyectos" d="M15.714,11.579V6.706a2.229,2.229,0,0,0,.825-.517l1.2-1.2a2.252,2.252,0,0,0,0-3.182l-1.2-1.2a2.252,2.252,0,0,0-3.182,0l-1.2,1.2a2.224,2.224,0,0,0-.517.825H6.794A3.444,3.444,0,1,0,2.3,6.676v5.577H2.147A2.149,2.149,0,0,0,0,14.4v1.84a2.149,2.149,0,0,0,2.147,2.146H3.986a2.149,2.149,0,0,0,2.146-2.146V14.4a2.149,2.149,0,0,0-2.146-2.146H3.833v-5.4A3.444,3.444,0,0,0,6.818,4.165h4.821a2.224,2.224,0,0,0,.517.825l1.2,1.2a2.226,2.226,0,0,0,.824.517v4.873a3.449,3.449,0,1,0,1.533,0ZM4.6,14.4v1.84a.614.614,0,0,1-.613.613H2.147a.614.614,0,0,1-.614-.613V14.4a.614.614,0,0,1,.614-.613H3.986A.614.614,0,0,1,4.6,14.4ZM3.449,5.354A1.916,1.916,0,1,1,5.366,3.438,1.918,1.918,0,0,1,3.449,5.354Zm9.791-1.449a.72.72,0,0,1,0-1.015l1.2-1.2a.717.717,0,0,1,1.014,0l1.2,1.2a.718.718,0,0,1,0,1.015l-1.2,1.2a.734.734,0,0,1-1.014,0l-1.2-1.2Zm1.706,12.946a1.916,1.916,0,1,1,1.916-1.916A1.918,1.918,0,0,1,14.947,16.852Z" transform="translate(0 0.049)" fill="#f1efec"/>
</svg>
