<svg xmlns="http://www.w3.org/2000/svg" width="18.708" height="18.697" viewBox="0 0 18.708 18.697">
  <path id="hogar" d="M18.023,7.074,12.11,1.161a3.9,3.9,0,0,0-5.513,0L.685,7.074A2.321,2.321,0,0,0,0,8.727V16.38a2.338,2.338,0,0,0,2.338,2.338H16.369a2.338,2.338,0,0,0,2.338-2.338V8.727A2.321,2.321,0,0,0,18.023,7.074Zm-6.33,10.085H7.015V14.093a2.338,2.338,0,1,1,4.677,0Zm5.456-.779a.78.78,0,0,1-.78.779H13.251V14.093a3.9,3.9,0,1,0-7.795,0v3.067H2.338a.779.779,0,0,1-.779-.779V8.727a.786.786,0,0,1,.228-.551L7.7,2.265a2.345,2.345,0,0,1,3.308,0l5.913,5.913a.786.786,0,0,1,.228.549Z" transform="translate(0 -0.021)" fill="#f1efec"/>
</svg>
