<svg xmlns="http://www.w3.org/2000/svg" width="18.911" height="18.911" viewBox="0 0 18.911 18.911">
  <path id="Inventario" d="M12.213,11.819h3.152V13.4H12.213Zm6.7-.788v7.88H0v-7.88A2.367,2.367,0,0,1,2.364,8.668H3.94v-6.3A2.367,2.367,0,0,1,6.3,0h6.3a2.367,2.367,0,0,1,2.364,2.364v6.3h1.576A2.367,2.367,0,0,1,18.911,11.031ZM5.516,8.668H13.4v-6.3a.788.788,0,0,0-.788-.788H6.3a.788.788,0,0,0-.788.788Zm-3.94,8.668H8.668V10.244h-6.3a.788.788,0,0,0-.788.788Zm15.759-6.3a.788.788,0,0,0-.788-.788h-6.3v7.092h7.092Zm-13.789.788V13.4H6.7V11.819ZM7.88,4.728h3.152V3.152H7.88Z" fill="#f1efec"/>
</svg>
