<svg xmlns="http://www.w3.org/2000/svg" width="19.636" height="18" viewBox="0 0 19.636 18">
  <path id="mensajes" d="M15.545,1H4.091A4.1,4.1,0,0,0,0,5.091v9.818A4.1,4.1,0,0,0,4.091,19H15.545a4.1,4.1,0,0,0,4.091-4.091V5.091A4.1,4.1,0,0,0,15.545,1ZM4.091,2.636H15.545A2.455,2.455,0,0,1,17.82,4.18l-6.266,6.266a2.46,2.46,0,0,1-3.472,0L1.816,4.18A2.455,2.455,0,0,1,4.091,2.636ZM15.545,17.364H4.091a2.455,2.455,0,0,1-2.455-2.455V6.318L6.925,11.6a4.1,4.1,0,0,0,5.786,0L18,6.318v8.591A2.455,2.455,0,0,1,15.545,17.364Z" transform="translate(0 -1)" fill="#f1efec"/>
</svg>
