<svg xmlns="http://www.w3.org/2000/svg" width="19.519" height="14.64" viewBox="0 0 19.519 14.64">
  <g id="_01_align_center" data-name="01 align center" transform="translate(0 -2.681)">
    <path id="Trazado_4" data-name="Trazado 4" d="M19.374,9.335h0A12.8,12.8,0,0,0,16,4.911l-1.363-.942A9.583,9.583,0,0,0,9.76,2.681c-6.1,0-8.9,5.092-9.614,6.654a1.6,1.6,0,0,0,0,1.334,12.8,12.8,0,0,0,3.371,4.424l1.363.94a9.583,9.583,0,0,0,4.88,1.287c6.1,0,8.9-5.092,9.614-6.654A1.6,1.6,0,0,0,19.374,9.335ZM1.627,10.01c.61-1.338,3-5.7,8.133-5.7a8.009,8.009,0,0,1,3.674.869L12,6.612a4.06,4.06,0,0,0-5.116.512,4.019,4.019,0,0,0,.638,6.266l-2.841.541A11.1,11.1,0,0,1,1.627,10.01ZM12.2,10a2.44,2.44,0,0,1-2.44,2.44,2.491,2.491,0,0,1-2.2-1.395L10.8,7.805A2.353,2.353,0,0,1,12.2,10ZM7.32,10a2.44,2.44,0,0,1,2.44-2.44,2.4,2.4,0,0,1,1.045.244L7.564,11.046A2.4,2.4,0,0,1,7.32,10Zm2.44,5.693a8.312,8.312,0,0,1-5.08-1.763l2.841-.541A4.062,4.062,0,1,0,12,6.612l1.435-1.435A10.8,10.8,0,0,1,17.893,10C17.271,11.349,14.877,15.694,9.76,15.694Z" fill="#4b3c8c"/>
  </g>
</svg>
