<svg xmlns="http://www.w3.org/2000/svg" width="21.999" height="22" viewBox="0 0 21.999 22">
  <path id="planificar-estrategia" d="M.269,3.935,1.454,2.75.269,1.565a.917.917,0,0,1,1.3-1.3L2.75,1.454,3.935.269a.917.917,0,1,1,1.3,1.3L4.046,2.75,5.231,3.935a.917.917,0,1,1-1.3,1.3L2.75,4.046,1.565,5.231a.917.917,0,0,1-1.3-1.3Zm8.25,5.879a.916.916,0,0,0,1.3,0L11,8.629l1.185,1.185a.916.916,0,0,0,1.3-1.3L12.3,7.333l1.185-1.185a.917.917,0,0,0-1.3-1.3L11,6.037,9.814,4.852a.916.916,0,1,0-1.3,1.3L9.7,7.333,8.518,8.518A.916.916,0,0,0,8.518,9.814Zm10.463,6.954a.916.916,0,0,0-1.3,0L16.5,17.953l-1.185-1.185a.916.916,0,0,0-1.3,1.3L15.2,19.249l-1.185,1.185a.916.916,0,1,0,1.3,1.3L16.5,20.546l1.185,1.185a.916.916,0,0,0,1.3-1.3L17.8,19.249l1.185-1.185a.916.916,0,0,0,0-1.3ZM21.744,3.843a.916.916,0,0,1-1.3.026l-1.2-1.151v7.365a3.67,3.67,0,0,1-3.667,3.667H5.962a1.837,1.837,0,0,0-1.833,1.826v.158a3.208,3.208,0,1,1-1.834,0v-.163a3.674,3.674,0,0,1,3.667-3.652h9.621a1.835,1.835,0,0,0,1.833-1.833V2.724l-1.2,1.145a.916.916,0,0,1-1.27-1.322L17.057.522a1.822,1.822,0,0,1,2.565.013l2.1,2.014a.917.917,0,0,1,.026,1.3ZM3.208,17.416a1.375,1.375,0,1,0,1.375,1.375A1.377,1.377,0,0,0,3.208,17.416Z" transform="translate(0 0)" fill="#fff"/>
</svg>
