<svg xmlns="http://www.w3.org/2000/svg" width="19.133" height="19.152" viewBox="0 0 19.133 19.152">
  <path id="reserva" d="M3.082,15.119a.8.8,0,0,1-1.09.292A4,4,0,0,1,0,11.958V5.58A3.992,3.992,0,0,1,3.986,1.594V.8A.8.8,0,0,1,5.58.8v.8h5.58V.8a.8.8,0,1,1,1.594,0v.8A3.99,3.99,0,0,1,16.741,5.58v6.378a.8.8,0,0,1-1.594,0V7.175h-.8a.8.8,0,0,1,0-1.594h.8a2.394,2.394,0,0,0-2.392-2.392H3.986A2.394,2.394,0,0,0,1.594,5.58H7.972a.8.8,0,0,1,0,1.594H1.594v4.783a2.4,2.4,0,0,0,1.2,2.072.8.8,0,0,1,.291,1.089Zm13.466-.307-2.989-1.117V9.673a2.457,2.457,0,0,0-2-2.444A2.393,2.393,0,0,0,8.776,9.588v6.029l-.809-.644c-.006,0-.013,0-.018-.01A2.388,2.388,0,0,0,4.741,18.5l.445.429a.8.8,0,0,0,1.106-1.148l-.453-.437a.8.8,0,0,1,1.087-1.167l2.15,1.715a.8.8,0,0,0,1.294-.623V9.585a.8.8,0,0,1,.937-.786.865.865,0,0,1,.658.871v4.575a.8.8,0,0,0,.518.747L15.991,16.3a2.393,2.393,0,0,1,1.549,2.082.8.8,0,0,0,.795.745c.018,0,.035,0,.053,0a.8.8,0,0,0,.744-.847,3.99,3.99,0,0,0-2.583-3.471Z" transform="translate(0.001)" fill="#f1efec"/>
</svg>
