<svg xmlns="http://www.w3.org/2000/svg" width="16.714" height="20.059" viewBox="0 0 16.714 20.059">
  <g id="Roles_y_perfiles" data-name="Roles y perfiles" transform="translate(-42.683 0)">
    <path id="Trazado_13" data-name="Trazado 13" d="M54.8,6.687H47.7V6.041A3.533,3.533,0,0,1,54.322,4.33a1.254,1.254,0,1,0,2.192-1.217h0A6.041,6.041,0,0,0,45.19,6.041V7.194a4.6,4.6,0,0,0-2.507,4.089v4.179a4.6,4.6,0,0,0,4.6,4.6H54.8a4.6,4.6,0,0,0,4.6-4.6V11.283A4.6,4.6,0,0,0,54.8,6.687Zm2.089,8.775A2.089,2.089,0,0,1,54.8,17.551H47.279a2.089,2.089,0,0,1-2.089-2.089V11.283a2.089,2.089,0,0,1,2.089-2.089H54.8a2.089,2.089,0,0,1,2.089,2.089Z" transform="translate(0 0)" fill="#f1efec"/>
    <path id="Trazado_14" data-name="Trazado 14" d="M214.6,298.7h.836a1.254,1.254,0,0,1,1.254,1.254h0a1.254,1.254,0,0,1-1.254,1.254H214.6a1.254,1.254,0,0,1-1.254-1.254h0A1.254,1.254,0,0,1,214.6,298.7Z" transform="translate(-163.981 -286.999)" fill="#f1efec"/>
  </g>
</svg>
