<svg xmlns="http://www.w3.org/2000/svg" width="19.149" height="19.152" viewBox="0 0 19.149 19.152">
  <path id="Servicio" d="M3.99,3.192a.8.8,0,0,1,.8-.8h1.6V.8a.8.8,0,1,1,1.6,0v1.6h1.6a.8.8,0,0,1,0,1.6H7.98v1.6a.8.8,0,0,1-1.6,0V3.99h-1.6A.8.8,0,0,1,3.99,3.192Zm14.553,7.194-5.43,6.094a7.987,7.987,0,0,1-5.958,2.672H3.192A3.2,3.2,0,0,1,0,15.96V11.97A3.2,3.2,0,0,1,3.192,8.778h7.069a2.508,2.508,0,0,1,2.146,1.211l2.566-2.82a2.4,2.4,0,0,1,3.395-.159,2.411,2.411,0,0,1,.175,3.375Zm-1.25-2.2a.831.831,0,0,0-.581-.209.8.8,0,0,0-.559.263l-3.532,3.882a2.522,2.522,0,0,1-2.006,1.643L6.5,14.357a.8.8,0,1,1-.226-1.579l4.119-.588a.912.912,0,0,0-.128-1.814H3.192a1.6,1.6,0,0,0-1.6,1.6v3.99a1.6,1.6,0,0,0,1.6,1.6H7.154a6.39,6.39,0,0,0,4.767-2.137l5.43-6.1a.811.811,0,0,0-.058-1.134Z" fill="#f1efec"/>
</svg>
