<?xml version="1.0" encoding="UTF-8"?>
<svg id="Capa_2" data-name="Capa 2" xmlns="http://www.w3.org/2000/svg" viewBox="0 0 697.53 115.89">
  <defs>
    <style>
      .cls-1 {
        fill: #fff;
      }
    </style>
  </defs>
  <g id="Capa_1-2" data-name="Capa 1">
    <g>
      <path class="cls-1" d="M91.04,21.08C74.9-6,26.42,4.05,0,2.23v111.8h25.88v-30.83c14.12-.14,36.49,1.4,48.39-4.87,22.17-8.53,28.94-38.35,16.77-57.26ZM64.85,57.02c-6.93,7.3-28.88,4.67-38.97,5.11V23.32c10.16.46,31.98-2.2,38.97,5.11,7.84,6.17,7.93,22.38,0,28.59Z"/>
      <polygon class="cls-1" points="141.19 92.76 141.19 2.04 115.32 2.04 115.32 113.85 197.25 113.85 197.25 92.76 141.19 92.76"/>
      <path class="cls-1" d="M295.96,113.85h27.15L273.12,2.04h-25.55l-49.83,111.8h26.51l9.96-23.96h51.83l9.92,23.96ZM242.38,70.24l17.79-42.79,17.73,42.79h-35.52Z"/>
      <polygon class="cls-1" points="460.79 113.85 460.47 2.04 439.22 2.04 398.05 71.47 356.17 2.04 334.77 2.04 334.77 113.85 359.05 113.85 359.05 48.19 391.79 102.03 403.45 102.03 436.37 46.74 436.51 113.85 460.79 113.85"/>
      <path class="cls-1" d="M536.97,114.79c-65.1,1.67-48.87-71.01-50.63-113.72h25.88v61.65c-.04,18.9,6.84,29.7,24.92,30.03,18.08-.33,24.95-11.13,24.92-30.03,0,0,0-61.65,0-61.65h25.55c-1.77,42.81,14.46,115.35-50.63,113.72Z"/>
      <path class="cls-1" d="M649.89,115.69c-15.42.09-34.03-4.22-45.52-12.94l8.78-19.49c10.72,11.78,72.11,21.33,54.95-7.43-13.95-8.64-34.46-7.52-48.56-17.01-21.2-12.36-14.75-45.94,7.91-54.06,18.26-7.86,47.45-5.92,65.09,5.19l-7.99,19.65c-30.38-20.88-75.64.53-39.45,15.18,16.28,5.08,38.46,5.79,48.64,21.72,14.48,27.89-15.13,51.8-43.84,49.19Z"/>
    </g>
  </g>
</svg>