<svg xmlns="http://www.w3.org/2000/svg" width="18.396" height="18" viewBox="0 0 18.396 18">
  <path id="Taquilla" d="M9.2,15a7.592,7.592,0,0,0,7.665-7.5A7.592,7.592,0,0,0,9.2,0,7.592,7.592,0,0,0,1.533,7.5,7.592,7.592,0,0,0,9.2,15Zm0-13.5a6.074,6.074,0,0,1,6.132,6,6.074,6.074,0,0,1-6.132,6,6.074,6.074,0,0,1-6.132-6A6.074,6.074,0,0,1,9.2,1.5Zm9.2,13.875A2.657,2.657,0,0,1,15.713,18H2.683A2.657,2.657,0,0,1,0,15.375a2.62,2.62,0,0,1,1.07-2.1.779.779,0,0,1,1.073.148.739.739,0,0,1-.151,1.05,1.108,1.108,0,0,0-.459.9A1.139,1.139,0,0,0,2.683,16.5h13.03a1.139,1.139,0,0,0,1.15-1.125,1.11,1.11,0,0,0-.46-.9.739.739,0,0,1-.15-1.051.778.778,0,0,1,1.073-.147A2.591,2.591,0,0,1,18.4,15.375ZM10.731,9a.581.581,0,0,0-.494-.571L7.906,8.05A2.086,2.086,0,0,1,6.132,6a2.278,2.278,0,0,1,2.3-2.25V3A.767.767,0,0,1,9.964,3v.75h.205a2.317,2.317,0,0,1,1.991,1.124.741.741,0,0,1-.28,1.024.775.775,0,0,1-1.047-.273.772.772,0,0,0-.665-.376H8.431A.759.759,0,0,0,7.665,6a.581.581,0,0,0,.494.571l2.331.379A2.086,2.086,0,0,1,12.264,9a2.278,2.278,0,0,1-2.3,2.25V12a.767.767,0,0,1-1.533,0v-.75H8.226a2.317,2.317,0,0,1-1.991-1.124A.741.741,0,0,1,6.514,9.1a.775.775,0,0,1,1.047.273.772.772,0,0,0,.665.376H9.964A.759.759,0,0,0,10.731,9Z" fill="#f1efec"/>
</svg>
