<svg xmlns="http://www.w3.org/2000/svg" width="15.044" height="20.059" viewBox="0 0 15.044 20.059">
  <path id="Usuarios" d="M13.865,20.059H7.179A4.184,4.184,0,0,1,3,15.88V5.85A4.184,4.184,0,0,1,7.179,1.672h.143A2.512,2.512,0,0,1,9.686,0h1.672a2.512,2.512,0,0,1,2.364,1.672h.143A4.184,4.184,0,0,1,18.044,5.85V15.88A4.184,4.184,0,0,1,13.865,20.059ZM7.179,3.343A2.51,2.51,0,0,0,4.672,5.85V15.88a2.51,2.51,0,0,0,2.507,2.507h6.686a2.51,2.51,0,0,0,2.507-2.507V5.85a2.51,2.51,0,0,0-2.507-2.507h-.836a.836.836,0,0,1-.836-.836.837.837,0,0,0-.836-.836H9.686a.837.837,0,0,0-.836.836.837.837,0,0,1-.836.836Zm3.343,7.522A2.089,2.089,0,1,0,8.433,8.776,2.089,2.089,0,0,0,10.522,10.865Zm3.551,4.988a.835.835,0,0,0,.6-1.017,4.317,4.317,0,0,0-8.3,0,.835.835,0,1,0,1.618.416,2.648,2.648,0,0,1,5.068,0,.835.835,0,0,0,.809.628.824.824,0,0,0,.209-.027Z" transform="translate(-3)" fill="#f1efec"/>
</svg>
