<svg xmlns="http://www.w3.org/2000/svg" width="89.085" height="118.977" viewBox="0 0 89.085 118.977">
  <g id="Capa_1" data-name="Capa 1" transform="translate(0 -0.012)">
    <g id="Grupo_93" data-name="Grupo 93" transform="translate(0 0.012)">
      <path id="Trazado_539" data-name="Trazado 539" d="M92.694,57.5c-.167-5.849,3.33-9.758,8.334-9.755s8.735,3.571,8.593,9.755h3.814c2.765,0,5.531-.017,8.3.01a4.162,4.162,0,0,1,4.334,4.272c.04,4.317.02,8.637.007,12.956a1.839,1.839,0,0,1-1.779,2.07,1.8,1.8,0,0,1-1.705-2.018c-.027-4.053-.01-8.106-.015-12.159,0-1.65-.062-1.707-1.735-1.709-3.9,0-7.8-.023-11.706.03-.974-.008-.745-.1-1.379.659a8.514,8.514,0,0,1-13.349.067c-.644-.822-.482-.766-1.61-.773-5.643-.028-11.284.015-17.118.015V62.17q0,7.613,0,15.228c-.005,3.183-1.645,4.831-4.821,4.838q-7.5.015-15,0H54.463v43.792c0,1.869-.5,2.634-1.73,2.651-1.245.017-1.755-.736-1.755-2.614q0-22.33-.017-44.663A3.619,3.619,0,0,1,52.106,78.6Q62.195,68.6,72.2,58.514a3.221,3.221,0,0,1,2.5-1.026c5.455.037,10.909.017,16.365.017h1.623ZM57.212,78.66c.323.017.616.047.91.047q6.308.005,12.616,0c1.431,0,1.488-.06,1.489-1.463q.005-6.366,0-12.73c0-.281-.03-.561-.045-.818L57.214,78.66Zm43.833-17.267a5.1,5.1,0,0,0-.062-10.2A5.206,5.206,0,0,0,95.9,56.281a5.143,5.143,0,0,0,5.148,5.114Z" transform="translate(-42.432 -39.761)" fill="#6854bf"/>
      <path id="Trazado_540" data-name="Trazado 540" d="M126.032,288.619c0,11.518-.049,23.035.035,34.553a4.68,4.68,0,0,1-4.953,5q-32.677-.123-65.355,0a4.555,4.555,0,0,1-4.853-4.843c.092-5.909.025-11.82.028-17.73a6.679,6.679,0,0,1,.059-1.019,1.571,1.571,0,0,1,1.509-1.439,1.6,1.6,0,0,1,1.806,1.227,4.261,4.261,0,0,1,.107,1.235q.01,8.808.005,17.618c0,1.376.12,1.5,1.484,1.5q32.564,0,65.127,0c1.406,0,1.5-.107,1.5-1.727q0-34.382,0-68.765a11.1,11.1,0,0,1,.052-1.474,1.579,1.579,0,0,1,1.673-1.518,1.645,1.645,0,0,1,1.737,1.471,5.315,5.315,0,0,1,.04,1.133v34.781Z" transform="translate(-42.387 -209.196)" fill="#6854bf"/>
      <path id="Trazado_541" data-name="Trazado 541" d="M169.576,376.117a21.229,21.229,0,0,1-5.153-41.829,2.351,2.351,0,0,1,1.638.038c.485.336,1.051,1.115.962,1.585a2.679,2.679,0,0,1-1.332,1.591c-1.027.525-2.232.7-3.3,1.17a17.734,17.734,0,0,0-10.471,18.42,17.763,17.763,0,0,0,35.281-.231,17.673,17.673,0,0,0-12.989-19.109,8.831,8.831,0,0,1-.976-.288,1.625,1.625,0,0,1-1.108-1.981,1.474,1.474,0,0,1,1.814-1.3,18.8,18.8,0,0,1,3.477.979,21.225,21.225,0,0,1-7.852,40.959Z" transform="translate(-123.497 -278.231)" fill="#6854bf"/>
      <path id="Trazado_542" data-name="Trazado 542" d="M13.217,133.4a6.666,6.666,0,0,1-6.6,6.674A6.667,6.667,0,0,1,6.6,126.74a6.663,6.663,0,0,1,6.615,6.659Zm-6.558,3.138a3.132,3.132,0,1,0-.157-6.26,3.131,3.131,0,1,0,.157,6.26Z" transform="translate(0 -105.533)" fill="#6854bf"/>
      <path id="Trazado_543" data-name="Trazado 543" d="M79.207,63.443c.761,1.2,3.029,2.165,1.158,3.882-1.642,1.5-2.527-.532-3.963-1.518a10.494,10.494,0,0,1-.957,1.26c-.922.917-1.951.964-2.686.191s-.671-1.692.231-2.6a19.643,19.643,0,0,1,1.55-1.235,17.173,17.173,0,0,1-1.709-1.387,1.64,1.64,0,0,1,.022-2.51,1.746,1.746,0,0,1,2.45.119c.226.2.428.428.646.639s.438.415.671.634c1.188-.76,2.1-2.957,3.812-1.309,1.757,1.692-.485,2.619-1.223,3.834Z" transform="translate(-60.165 -49.139)" fill="#6854bf"/>
      <path id="Trazado_544" data-name="Trazado 544" d="M246.207,4.443c.761,1.2,3.029,2.165,1.158,3.882-1.642,1.5-2.527-.532-3.963-1.518a10.492,10.492,0,0,1-.957,1.26c-.922.917-1.951.964-2.686.191s-.671-1.692.231-2.6a19.647,19.647,0,0,1,1.55-1.235,17.174,17.174,0,0,1-1.709-1.387,1.64,1.64,0,0,1,.022-2.51,1.746,1.746,0,0,1,2.45.119c.226.2.428.428.646.639s.438.415.671.634c1.188-.76,2.1-2.957,3.812-1.309,1.757,1.692-.485,2.619-1.223,3.834Z" transform="translate(-199.219 -0.012)" fill="#6854bf"/>
      <path id="Trazado_545" data-name="Trazado 545" d="M498.107,36.007c.569.9,2.263,1.618.865,2.9-1.227,1.125-1.888-.4-2.96-1.135a7.7,7.7,0,0,1-.716.94,1.309,1.309,0,0,1-2.006.142,1.271,1.271,0,0,1,.172-1.941c.276-.278.614-.494,1.156-.922a13.11,13.11,0,0,1-1.277-1.036,1.224,1.224,0,0,1,.017-1.874,1.306,1.306,0,0,1,1.831.089c.169.151.32.32.482.477s.328.31.5.474c.889-.567,1.568-2.209,2.847-.977,1.312,1.263-.363,1.956-.914,2.863Z" transform="translate(-410.426 -27.227)" fill="#6854bf"/>
      <path id="Trazado_546" data-name="Trazado 546" d="M245.193,473.967a7.55,7.55,0,0,1,4.739,1.622,1.78,1.78,0,0,1,.509,2.567,1.74,1.74,0,0,1-2.515.231,4.893,4.893,0,0,0-5.906-.012,1.73,1.73,0,1,1-2-2.8A7.816,7.816,0,0,1,245.193,473.967Z" transform="translate(-199.123 -394.651)" fill="#6854bf"/>
      <path id="Trazado_547" data-name="Trazado 547" d="M319.516,263.528a1.915,1.915,0,0,1,.388,2.373,19.311,19.311,0,0,1-3.514,5.2c-.306.281-1.33.064-1.839-.236a1.345,1.345,0,0,1-.45-1.9c1-1.73,1.98-3.486,3.136-5.111a2.128,2.128,0,0,1,1.847-.569,1.04,1.04,0,0,1,.432.243Z" transform="translate(-261.359 -219.198)" fill="#6854bf"/>
      <path id="Trazado_548" data-name="Trazado 548" d="M204.641,269.86c-.295.308-.664,1.006-1.191,1.158a2.013,2.013,0,0,1-1.786-.423,57.536,57.536,0,0,1-3.283-5.415,1.321,1.321,0,0,1,.733-1.893c.6-.207,1.749-.176,2.017.2,1.262,1.777,2.308,3.708,3.419,5.593A2.978,2.978,0,0,1,204.641,269.86Z" transform="translate(-165.044 -219.123)" fill="#6854bf"/>
      <path id="Trazado_549" data-name="Trazado 549" d="M268.36,248.011c0,.907.033,1.816-.008,2.721a1.7,1.7,0,0,1-1.735,1.714,1.728,1.728,0,0,1-1.662-1.694q-.06-2.776,0-5.556a1.723,1.723,0,0,1,1.709-1.757,1.705,1.705,0,0,1,1.709,1.735c.042.942.008,1.889.008,2.833h-.022Z" transform="translate(-220.591 -202.703)" fill="#6854bf"/>
      <path id="Trazado_550" data-name="Trazado 550" d="M211.232,439.7a1.758,1.758,0,0,1-1.752-1.7,1.727,1.727,0,0,1,1.744-1.7,1.7,1.7,0,0,1,1.74,1.694,1.72,1.72,0,0,1-1.734,1.709Z" transform="translate(-174.425 -363.29)" fill="#6854bf"/>
      <path id="Trazado_551" data-name="Trazado 551" d="M322.385,436.29a1.654,1.654,0,0,1,1.69,1.712,1.7,1.7,0,1,1-3.405-.03,1.642,1.642,0,0,1,1.715-1.68Z" transform="translate(-267.007 -363.281)" fill="#6854bf"/>
    </g>
  </g>
</svg>
