<svg xmlns="http://www.w3.org/2000/svg" width="131" height="131.003" viewBox="0 0 131 131.003">
  <g id="Capa_1" transform="translate(0 -0.01)">
    <g id="Grupo_125" data-name="Grupo 125" transform="translate(0 0.01)">
      <path id="Trazado_564" data-name="Trazado 564" d="M0,103.63V25.848c2.081-5.98,4.124-7.42,10.528-7.42,12.193,0,24.382-.075,36.571.065,2.35.027,3.759-.532,4.694-2.733.751-1.764,1.938-2.177,3.07-1.515s1.191,1.719.191,3.452q-13.7,23.728-27.4,47.46c-2.074,3.6-.194,6.9,3.94,6.932,2.388.017,4.773,0,7.161,0q30.243,0,60.485,0c4.131,0,6.212-3.251,4.237-6.68Q86.419,35.806,69.311,6.226c-1.863-3.22-5.711-3.193-7.621,0-.614,1.023-1.153,2.091-1.825,3.074a1.751,1.751,0,0,1-2.48.566,1.724,1.724,0,0,1-.791-2.415C58.275,4.107,60.062.832,64.221.01h2.559c3.21.716,5.162,2.835,6.673,5.636,2.1,3.9,4.435,7.669,6.594,11.538a2.134,2.134,0,0,0,2.177,1.276q19.957-.067,39.911-.024a8.338,8.338,0,0,1,8.655,6.97,2.22,2.22,0,0,0,.212.447v77.781a.758.758,0,0,0-.143.208c-1.286,5.083-4.063,7.243-9.317,7.246H79.927c-.191,4.2.815,13.905,1.658,16.088,1.887,0,3.8.017,5.718-.007,1.075-.014,2.067.075,2.535,1.252.478,1.2-.27,1.9-1.054,2.593H42.217c-.791-.686-1.532-1.392-1.058-2.589.467-1.18,1.46-1.269,2.535-1.255,1.951.024,3.906.007,6.158.007.488-5.376.965-10.654,1.457-16.088H49.5q-20.4,0-40.8-.007a8.289,8.289,0,0,1-8.474-6.857A3.846,3.846,0,0,0,0,103.636ZM88.132,31.051c.338.621.532,1,.744,1.361,5.96,10.33,11.947,20.646,17.876,30.993,3.429,5.98-.27,12.5-7.164,12.51q-34.091.067-68.181-.038A9.88,9.88,0,0,1,26.7,74.584c-3.882-2.258-4.841-7.014-2.446-11.183Q33.141,47.948,42.07,32.521c.242-.42.454-.853.747-1.406-.59-.027-.962-.058-1.337-.058q-13.816,0-27.629,0c-1.815,0-1.931.123-1.931,1.989V90.823H85.358c.426,0,.853-.017,1.279.01a1.783,1.783,0,0,1,1.815,1.788,1.808,1.808,0,0,1-1.62,1.979,7.864,7.864,0,0,1-1.528.058H3.889c0,2.429.113,4.687-.027,6.929-.2,3.251,1.631,5.714,5.67,5.707q55.967-.118,111.93-.048c.426,0,.853.01,1.279-.01,2.013-.092,3.954-1.4,4.114-3.364.249-3.026.065-6.086.065-9.218H125.4q-14.328,0-28.653-.007a5.438,5.438,0,0,1-1.634-.171,1.707,1.707,0,0,1-1.232-1.989,1.753,1.753,0,0,1,1.661-1.651,9.225,9.225,0,0,1,1.15-.02h22.389V33.163c0-2.033-.078-2.112-2.067-2.112H88.135ZM47.986,22.266H9.184c-3.5,0-5.295,1.777-5.295,5.254q-.005,30.949,0,61.9c0,.447.041.894.061,1.337H8.082V33.309c0-.6,0-1.194.044-1.788a3.888,3.888,0,0,1,2.006-3.371,8.121,8.121,0,0,1,3.5-.9c10.1-.068,20.206-.034,30.311-.055.464,0,1.153-.078,1.351-.379.931-1.4,1.73-2.9,2.688-4.551Zm79.129,68.5V27.5c0-3.411-1.808-5.226-5.2-5.226q-18.8-.005-37.6,0h-1.29c.747,1.3,1.47,2.361,1.979,3.51A2.356,2.356,0,0,0,87.6,27.244c9.934-.051,19.865-.02,29.8-.038a5.321,5.321,0,0,1,4.537,1.876,5.84,5.84,0,0,1,1,3.872q-.01,28.073-.007,56.142v1.672h4.193ZM77.256,127.114c-.474-5.407-.938-10.688-1.4-15.966H55.15c-.471,5.353-.935,10.64-1.406,15.966H77.259Z" transform="translate(0 -0.01)" fill="#4b3c8c"/>
      <path id="Trazado_565" data-name="Trazado 565" d="M173.827,66.588c0-3.319-.017-6.642,0-9.961.024-3.824,2.582-6.526,6.168-6.557a6.184,6.184,0,0,1,6.325,6.431q.082,10.153,0,20.308a6.253,6.253,0,0,1-12.3,1.767,8.341,8.341,0,0,1-.191-2.023c-.017-3.319-.007-6.642-.007-9.961Zm8.675.1c0-3.326.017-6.652-.007-9.975-.014-1.736-.9-2.743-2.333-2.791-1.532-.051-2.484.959-2.487,2.729q-.02,9.979,0,19.954c0,.256-.075.583.051.754.5.675.969,1.641,1.651,1.852a2.942,2.942,0,0,0,2.385-.607,3.251,3.251,0,0,0,.72-2.194c.075-3.237.031-6.478.031-9.719Z" transform="translate(-114.522 -32.992)" fill="#4b3c8c"/>
      <path id="Trazado_566" data-name="Trazado 566" d="M179.207,170.3a6.653,6.653,0,1,1,6.6-6.693,6.628,6.628,0,0,1-6.6,6.693Zm-.106-3.848a2.787,2.787,0,0,0,2.862-2.8,2.811,2.811,0,1,0-5.622.024A2.787,2.787,0,0,0,179.1,166.456Z" transform="translate(-113.652 -103.443)" fill="#4b3c8c"/>
      <path id="Trazado_567" data-name="Trazado 567" d="M179.86,294.071c-1.358,0-2.719.017-4.077,0a1.926,1.926,0,1,1,0-3.824q4.14-.036,8.283,0a1.918,1.918,0,1,1,0,3.817c-1.4.027-2.8.007-4.2.007Z" transform="translate(-114.394 -191.218)" fill="#4b3c8c"/>
    </g>
  </g>
</svg>
