<svg id="salida" xmlns="http://www.w3.org/2000/svg" width="51.434" height="51.442" viewBox="0 0 51.434 51.442">
  <path id="Trazado_2" data-name="Trazado 2" d="M43.227,13.942,34.913,5.628a2.143,2.143,0,1,0-3.031,3.031L40.2,16.973a4.409,4.409,0,0,1,.643.836c-.032,0-.058-.017-.09-.017h0L7.132,17.86a2.143,2.143,0,0,0,0,4.287h0l33.6-.069c.06,0,.109-.03.167-.034a4.287,4.287,0,0,1-.716.99l-8.314,8.314A2.143,2.143,0,1,0,34.9,34.38l8.314-8.315a8.574,8.574,0,0,0,0-12.123Z" transform="translate(5.704 5.717)" fill="#6854bf"/>
  <path id="Trazado_3" data-name="Trazado 3" d="M15,47.155H10.717a6.43,6.43,0,0,1-6.43-6.43V10.717a6.43,6.43,0,0,1,6.43-6.43H15A2.143,2.143,0,1,0,15,0H10.717A10.73,10.73,0,0,0,0,10.717V40.725A10.73,10.73,0,0,0,10.717,51.442H15a2.143,2.143,0,1,0,0-4.287Z" fill="#6854bf"/>
</svg>
