<svg xmlns="http://www.w3.org/2000/svg" xmlns:xlink="http://www.w3.org/1999/xlink" width="378" height="576" viewBox="0 0 378 576">
  <defs>
    <clipPath id="clip-path">
      <rect id="Rectángulo_100" data-name="Rectángulo 100" width="378" height="576" transform="translate(0.191 0)" fill="#f6f6f6"/>
    </clipPath>
    <clipPath id="clip-path-2">
      <rect id="Rectángulo_99" data-name="Rectángulo 99" width="419.187" height="519.502" fill="none" stroke="#4b3c8c" stroke-width="1"/>
    </clipPath>
  </defs>
  <g id="Grupo_48" data-name="Grupo 48" transform="translate(-0.377 0)">
    <rect id="Rectángulo_17" data-name="Rectángulo 17" width="378" height="576" transform="translate(0.377 0)" fill="#f6f6f6"/>
    <g id="Enmascarar_grupo_7" data-name="Enmascarar grupo 7" transform="translate(0.186 0)" clip-path="url(#clip-path)">
      <g id="Grupo_47" data-name="Grupo 47" transform="translate(562.252 229.699) rotate(106)" opacity="0.2">
        <g id="Grupo_46" data-name="Grupo 46" clip-path="url(#clip-path-2)">
          <path id="Trazado_521" data-name="Trazado 521" d="M250.3,519.5a237.487,237.487,0,0,1-24.283-1.691c-4.286-.445-8.719-.9-13.1-1.231-11.729-.894-22.788.2-33.481,1.252l-.19.019c-14.179,1.395-26.035,2.162-38.733-1.586-13.589-4.012-27.683-9.681-41.313-15.162q-3.3-1.328-6.6-2.649l-1.713-.686c-6.824-2.735-13.878-5.56-20.1-9.574-9.543-6.181-18.3-15.816-26.78-29.453a147.344,147.344,0,0,1-12.125-23.851C26.1,420.1,23.13,404.55,23.719,392.236c.1-2.165.368-4.237.624-6.239a53.155,53.155,0,0,0,.6-10.539c-.383-6.086-2.408-13.236-4.035-18.979l-1.246-4.394C11.7,324.023,3.466,295,.858,264.62c-1.849-21.55-1.763-44.685,11.266-67.842,9.8-17.429,27.372-28.642,45.97-40.513,2.6-1.66,5.286-3.374,7.931-5.094,38.952-25.339,81.636-43.911,122.917-61.87,5.41-2.355,11.005-4.788,16.479-7.189C247.036,63.855,285.871,41.483,318.371,22,330.965,14.456,342.012,8.5,354.98,3.948c6.539-2.3,19.423-5.722,32.262-2.856a35.267,35.267,0,0,1,7.274,2.495c6.75,3.178,11.462,7.289,14.4,12.571,10.878,19.522,10.5,45.665,10.133,70.949q-.03,1.971-.057,3.926l-.96,111.738q-.025,2.882-.047,5.766c-.19,23.978-.386,48.772-4.787,71.672a128.312,128.312,0,0,1-11.549,33.986c-2.911,5.829-6.462,11.574-9.895,17.132l-1.113,1.8c-1.545,2.515-2.836,4.628-4.114,6.77-13.311,22.329-24.5,46.8-35.327,70.467-8.4,18.367-17.088,37.361-26.62,54.989-9.564,17.712-21.9,37.122-40.922,46.8-11.053,5.669-22.1,7.346-33.369,7.346m-46.386-3.49c2.966,0,5.971.1,9.023.331,4.392.327,8.827.788,13.116,1.23,19.9,2.065,38.69,4.009,57.464-5.62,18.952-9.646,31.265-29.017,40.809-46.7,9.53-17.621,18.215-36.61,26.614-54.975,10.826-23.67,22.022-48.147,35.338-70.49,1.28-2.141,2.57-4.255,4.117-6.769l1.113-1.8c3.43-5.553,6.979-11.3,9.883-17.116a128.083,128.083,0,0,0,11.533-33.933c4.4-22.879,4.593-47.667,4.783-71.636q.024-2.885.048-5.764L418.71,91.03q.026-1.954.055-3.926c.367-25.258.745-51.375-10.107-70.848-2.915-5.233-7.588-9.311-14.285-12.465a34.968,34.968,0,0,0-7.207-2.47c-12.752-2.839-25.568.563-32.073,2.846C342.15,8.708,331.121,14.658,318.54,22.195,286.033,41.677,247.187,64.056,205.555,82.32c-5.474,2.4-11.069,4.837-16.48,7.189-41.268,17.955-83.941,36.522-122.87,61.847l-.09-.092.09.092c-2.647,1.722-5.334,3.437-7.934,5.1C39.7,168.306,22.161,179.5,12.386,196.878-.617,219.987-.7,243.085,1.145,264.6c2.606,30.369,10.839,59.376,18.8,87.429l1.246,4.392c1.629,5.755,3.656,12.917,4.042,19.022a53.277,53.277,0,0,1-.6,10.578c-.255,2-.52,4.065-.623,6.223-.586,12.288,2.38,27.805,8.137,42.569A147.2,147.2,0,0,0,44.25,458.632c8.458,13.6,17.193,23.214,26.7,29.375,6.2,4,13.243,6.816,20.052,9.544l1.713.688q3.3,1.318,6.6,2.649c13.623,5.479,27.711,11.146,41.285,15.153,12.637,3.732,24.458,2.962,38.6,1.571l.189-.018c7.93-.781,16.06-1.583,24.519-1.583" transform="translate(0 0)" fill="none" stroke="#4b3c8c" stroke-width="1"/>
          <path id="Trazado_522" data-name="Trazado 522" d="M231.847,452.175c-6.157,0-12.406-.373-18.768-.755q-2.458-.147-4.923-.287c-9.951-.573-19.539-.283-28.809,0l-1.233.036c-12.186.376-23.2.464-34.6-2.181-13.026-3.017-26.447-7.009-39.426-10.87q-2.577-.768-5.151-1.532l-.74-.22c-6.637-1.977-13.5-4.021-19.407-7.783C69.128,422.41,62.3,412.14,56.364,401.963c-4.639-8-8.151-14.638-11.055-20.889a201,201,0,0,1-13.241-37.1c-.475-2.025-.848-4-1.209-5.917a94.894,94.894,0,0,0-2.087-9.273,151.331,151.331,0,0,0-5.978-15.741l-.285-.675C12.113,287.672,1.831,261.149.24,232.241c-.8-14.555-.318-36.554,13.053-59.451,8.965-15.352,24.436-27.059,40.819-39.456q2.09-1.582,4.207-3.189c41.973-31.91,90.567-51.392,133.442-68.582,20.363-8.165,40.459-16.931,59.893-25.408,18.078-7.885,35.152-15.332,51.586-21.944A228.889,228.889,0,0,1,341.361,2.14C349.011.487,360.47-1.061,371.635.96a43.791,43.791,0,0,1,6.934,1.851c7.052,2.536,11.79,5.852,14.909,10.444,11.168,16.426,9.432,41.549,7.9,63.717l-.017.241-6.415,98.951c-1.368,21.146-2.781,43.012-8.817,62.774a131.661,131.661,0,0,1-13.381,29.242c-2.2,3.734-4.645,7.481-7.005,11.1-1.122,1.724-2.283,3.507-3.411,5.278-1.331,2.088-2.532,4.024-3.676,5.919-11.762,19.517-21.083,41.354-30.1,62.47-6.963,16.314-14.161,33.182-22.353,48.595-7.568,14.256-18.441,31.87-35.5,41.616-12.62,7.256-25.518,9.013-38.855,9.013m-36.1-1.608c4.079,0,8.218.088,12.425.329,1.643.091,3.284.19,4.923.287,20.1,1.205,39.076,2.346,57.439-8.216,17-9.711,27.852-27.288,35.4-41.517,8.188-15.4,15.385-32.268,22.346-48.578,9.016-21.123,18.339-42.967,30.108-62.5,1.146-1.9,2.349-3.833,3.679-5.924,1.13-1.77,2.291-3.553,3.414-5.278,2.359-3.623,4.8-7.368,7-11.1a131.56,131.56,0,0,0,13.361-29.193c6.029-19.742,7.441-41.6,8.808-62.732l6.433-99.192c1.53-22.134,3.263-47.222-7.862-63.588-3.088-4.543-7.783-7.829-14.774-10.341a43.835,43.835,0,0,0-6.88-1.838c-11.105-2.007-22.519-.469-30.139,1.18a228.324,228.324,0,0,0-38.068,12.052c-16.43,6.61-33.5,14.057-51.578,21.942-19.436,8.478-39.534,17.243-59.9,25.411C149.03,78.959,100.456,98.432,58.514,130.321l-.1-.089.1.089q-2.115,1.606-4.208,3.189c-16.359,12.379-31.813,24.074-40.754,39.382C.209,195.741-.271,217.7.528,232.231c1.589,28.874,11.866,55.381,22.256,80.055l.285.676a152.369,152.369,0,0,1,5.986,15.763c.961,3.308,1.534,6.351,2.09,9.292.361,1.912.734,3.889,1.208,5.908A200.554,200.554,0,0,0,45.58,380.99c2.9,6.244,6.409,12.875,11.043,20.871,5.923,10.151,12.729,20.391,22.34,26.535,5.87,3.736,12.712,5.773,19.328,7.746l.739.22q2.575.761,5.151,1.53c12.975,3.861,26.391,7.852,39.407,10.868,11.364,2.635,22.36,2.538,34.514,2.171l1.234-.037c5.362-.162,10.83-.327,16.413-.327" transform="translate(9.039 46.555)" fill="none" stroke="#4b3c8c" stroke-width="1"/>
          <path id="Trazado_523" data-name="Trazado 523" d="M211.9,385.99c-2.756,0-5.462-.06-8.11-.146-8.508-.276-17.4-.679-26.416-1.2-9.754-.533-20.142-1.187-30.467-2.779-12.531-1.931-25.331-4.185-37.711-6.369l-3.529-.621c-6.389-1.131-12.975-2.3-18.48-5.746-8.057-5.059-12.958-14.228-17.7-23.1l-.37-.691c-2.913-5.465-6.018-10.94-9.022-16.236l-.96-1.69c-4.263-7.451-8.46-14.641-12.517-21.594q-2.988-5.12-5.8-9.966c-1.091-1.879-2.159-3.757-3.192-5.574-1.48-2.6-3.012-5.3-4.628-8.026-1.74-2.934-3.619-5.964-5.436-8.895-1.023-1.65-2.049-3.3-3.059-4.955C11.959,247.906.312,225.427.011,200.021c-.28-17.619,4.573-34.32,14.839-51.056C22.89,135.858,35.116,123.623,51,109.286l.107.079L51,109.286C88.757,75.2,134.684,56.948,178.49,41.174,212.8,28.819,251.7,14.815,288.5,6.581A277.972,277.972,0,0,1,328.132.5a136.4,136.4,0,0,1,28.285.491A64.623,64.623,0,0,1,363,2.2c7.131,1.732,12.029,4.373,15.418,8.311,10.6,12.32,8.495,33.84,5.689,53.045l-11.538,80.2c-2.645,18.372-5.381,37.373-13.135,54.074-4.108,8.849-9.54,16.634-15.214,24.493q-1.238,1.72-2.494,3.442c-2.445,3.363-4.974,6.839-7.331,10.383-1.1,1.66-2.192,3.365-3.238,5.074-10.212,16.7-17.657,35.905-24.855,54.476-5.528,14.256-11.242,29-18.093,42.191-8.953,17.253-18.513,28.832-30.084,36.439C243.2,384.176,226.871,385.99,211.9,385.99M340.541.24q-5.963,0-12.381.494a277.809,277.809,0,0,0-39.585,6.074c-36.782,8.233-75.664,22.231-109.969,34.584-43.777,15.763-89.674,34-127.391,68.052-15.869,14.326-28.082,26.544-36.108,39.627C4.864,165.772.02,182.436.3,200.018c.3,25.358,11.934,47.807,24.461,68.288,1.01,1.65,2.036,3.305,3.06,4.956,1.817,2.931,3.7,5.963,5.437,8.9,1.616,2.728,3.149,5.424,4.63,8.028,1.033,1.815,2.1,3.692,3.19,5.572q2.807,4.836,5.806,9.964c4.058,6.956,8.253,14.145,12.518,21.6l.958,1.692c3.005,5.3,6.112,10.772,9.026,16.237l.37.693c4.726,8.84,9.612,17.978,17.609,23,5.452,3.419,12.008,4.58,18.349,5.7l3.546.623c12.376,2.181,25.175,4.438,37.7,6.369,10.309,1.588,20.687,2.241,30.433,2.774,9.017.517,17.9.92,26.408,1.2,16.965.538,36.542.142,54.147-11.461,11.534-7.581,21.067-19.132,30-36.346,6.845-13.183,12.556-27.919,18.081-42.17,7.2-18.581,14.652-37.794,24.875-54.511,1.045-1.711,2.136-3.419,3.241-5.083,2.362-3.546,4.891-7.025,7.337-10.39q1.253-1.721,2.494-3.439c5.666-7.85,11.092-15.626,15.191-24.456,7.742-16.675,10.476-35.66,13.119-54.018l.09-.632,11.447-79.573c2.8-19.16,4.9-40.629-5.639-52.878-3.348-3.893-8.2-6.506-15.264-8.223a63.841,63.841,0,0,0-6.553-1.2A119.829,119.829,0,0,0,340.541.24" transform="translate(17.689 92.95)" fill="none" stroke="#4b3c8c" stroke-width="1"/>
          <path id="Trazado_524" data-name="Trazado 524" d="M195.11,338.11a243.08,243.08,0,0,1-26.176-1.754c-20.882-2.278-42.134-4.61-64.971-7.13-5.538-.612-11.816-1.3-16.861-4.438C80.534,320.7,76.73,313.073,73.05,305.7c-.387-.777-.772-1.551-1.16-2.316C62.707,285.228,50.2,269.292,38.1,253.88c-10.735-13.677-20.874-26.6-28.056-40.186C.427,195.472-2.195,178.9,1.8,161.553c4.738-20.6,19-42.492,43.587-66.932A202.406,202.406,0,0,1,81.164,66.413c26.508-16.625,55.69-27.532,83.276-36.84,34.2-11.54,60.378-18.785,84.876-23.494,31.247-6,58.822-7.541,84.306-4.7,7.241.806,15.435,2.146,21.04,7.848,9.734,9.906,7.846,27.733,4.354,45.519l-13.428,68.408c-2.977,15.165-6.352,32.353-14.618,46.889-4.027,7.083-9.167,13.47-14.139,19.647-3.5,4.35-7.123,8.849-10.332,13.561-5.3,7.783-10.056,16.875-14.973,28.619-3.258,7.785-6.241,15.908-9.125,23.765-10.247,27.921-19.927,54.291-41.878,69.838-13.795,9.8-29.2,12.636-45.415,12.636M308.175.236A311.43,311.43,0,0,0,249.383,6.31C224.9,11.018,198.735,18.258,164.55,29.791c-27.568,9.3-56.729,20.2-83.211,36.811A202.031,202.031,0,0,0,45.6,94.774C21.044,119.181,6.807,141.039,2.078,161.6c-3.979,17.3-1.362,33.826,8.236,52,7.173,13.57,17.306,26.482,28.034,40.151,12.1,15.419,24.615,31.367,33.809,49.537q.581,1.152,1.16,2.318c3.665,7.345,7.454,14.94,13.959,18.991,4.982,3.1,11.221,3.787,16.726,4.391,22.836,2.519,44.087,4.851,64.968,7.129,25.642,2.8,50.394,4.079,71.366-10.826,21.889-15.5,31.555-41.839,41.791-69.725,2.886-7.859,5.868-15.987,9.127-23.777,4.923-11.756,9.688-20.861,15-28.656,3.214-4.721,6.838-9.222,10.342-13.577,4.966-6.168,10.1-12.548,14.118-19.617,8.251-14.5,11.621-31.676,14.6-46.824l13.429-68.408c3.48-17.733,5.368-35.5-4.3-45.334-5.537-5.634-13.667-6.96-20.853-7.76A228.37,228.37,0,0,0,308.175.236" transform="translate(29.755 122.807)" fill="none" stroke="#4b3c8c" stroke-width="1"/>
          <path id="Trazado_525" data-name="Trazado 525" d="M176.551,307.252a219.3,219.3,0,0,1-24-1.636c-18.826-2.093-38.118-4.271-58.977-6.661-5.023-.579-10.715-1.233-15.284-4.086-5.991-3.75-9.465-10.7-12.826-17.424q-.515-1.029-1.029-2.049c-8.262-16.319-19.39-30.692-30.153-44.6-9.767-12.618-18.993-24.533-25.467-37.053-8.547-16.59-10.8-31.676-7.1-47.473,4.383-18.718,17.312-38.6,39.524-60.79v0a183.23,183.23,0,0,1,32.385-25.79C97.9,44.337,124.384,34.464,149.381,26.081,196.273,10.363,251.192-4.841,303.02,1.458c6.525.785,13.909,2.058,18.949,7.268,8.75,9.048,7.034,25.235,3.878,41.38L313.7,112.269c-2.691,13.776-5.743,29.388-13.2,42.622-3.649,6.482-8.31,12.337-12.818,18-3.142,3.945-6.391,8.024-9.279,12.293a150.739,150.739,0,0,0-13.644,26.057c-2.871,6.8-5.532,13.881-8.1,20.727-9.609,25.59-18.685,49.758-39,63.951-12.564,8.78-26.488,11.334-41.1,11.334M278.124.234C233.99.234,188.9,13.09,149.491,26.3,124.511,34.677,98.052,44.544,73.8,59.884A182.99,182.99,0,0,0,41.46,85.633v0C19.28,107.791,6.372,127.642,2,146.318-1.692,162.068.56,177.11,9.083,193.653c6.465,12.5,15.684,24.41,25.446,37.017C45.3,244.582,56.433,258.968,64.7,275.3c.344.679.686,1.365,1.029,2.053,3.346,6.692,6.805,13.612,12.735,17.323,4.508,2.815,10.161,3.467,15.149,4.039,20.859,2.392,40.151,4.571,58.977,6.661,23.221,2.584,45.655,3.782,64.87-9.641,20.249-14.15,29.313-38.286,38.91-63.841,2.573-6.851,5.233-13.934,8.105-20.737a151.038,151.038,0,0,1,13.667-26.094c2.893-4.276,6.145-8.36,9.289-12.307,4.5-5.655,9.158-11.5,12.8-17.969,7.444-13.2,10.491-28.8,13.181-42.559l12.15-62.163c3.145-16.092,4.86-32.218-3.82-41.194-4.975-5.143-12.294-6.4-18.766-7.18A205.6,205.6,0,0,0,278.124.234" transform="translate(45.467 136.805)" fill="none" stroke="#4b3c8c" stroke-width="1"/>
          <path id="Trazado_526" data-name="Trazado 526" d="M157.818,276.445a193.664,193.664,0,0,1-21.667-1.511c-17.2-1.954-35.03-4.037-52.983-6.2-4.5-.542-9.6-1.156-13.708-3.731-5.416-3.414-8.561-9.69-11.6-15.763-.3-.6-.6-1.191-.9-1.78-7.337-14.474-17.085-27.276-26.512-39.66-8.8-11.565-17.122-22.488-22.889-33.946C.1,158.927-1.776,145.336,1.652,131.08c4.039-16.8,15.625-34.687,35.416-54.674A165.827,165.827,0,0,1,66.055,53.037,228.906,228.906,0,0,1,99.488,35.618c9.979-4.278,20.715-8.279,34.812-12.97,27.168-9.034,49.306-14.917,69.674-18.507C229.4-.341,251.783-1.175,272.4,1.592c5.813.767,12.388,1.982,16.86,6.694,7.763,8.193,6.222,22.738,3.4,37.238l-10.873,55.918c-2.411,12.393-5.141,26.435-11.787,38.348-3.272,5.887-7.454,11.209-11.5,16.356-2.782,3.542-5.661,7.2-8.226,11.028a142.689,142.689,0,0,0-12.319,23.491c-2.482,5.811-4.81,11.85-7.062,17.691-8.968,23.265-17.437,45.241-36.139,58.062-8.084,5.544-17.488,8.712-28.749,9.69-2.711.236-5.451.336-8.183.336M37.18,76.48l.112.074C17.53,96.512,5.965,114.363,1.935,131.126c-3.416,14.208-1.544,27.756,5.894,42.641,5.755,11.44,14.067,22.356,22.866,33.912,9.433,12.39,19.188,25.2,26.534,39.692.3.591.6,1.187.9,1.783,3.027,6.042,6.156,12.29,11.51,15.663,4.047,2.538,9.109,3.147,13.576,3.685,17.951,2.158,35.777,4.244,52.981,6.2,20.818,2.364,40.951,3.483,58.374-8.46,18.637-12.777,27.1-34.721,36.049-57.954,2.251-5.843,4.581-11.883,7.063-17.7a143.1,143.1,0,0,1,12.338-23.529c2.572-3.831,5.453-7.5,8.238-11.042,4.039-5.14,8.216-10.453,11.479-16.323,6.629-11.885,9.357-25.912,11.765-38.288L292.37,45.487c2.812-14.446,4.352-28.934-3.344-37.055-4.406-4.645-10.919-5.845-16.677-6.6C251.773-.939,229.427-.107,204.035,4.373c-20.351,3.588-42.476,9.465-69.628,18.493C96.381,35.525,78.6,45.317,66.232,53.223A165.734,165.734,0,0,0,37.291,76.555Z" transform="translate(61.204 150.744)" fill="none" stroke="#4b3c8c" stroke-width="1"/>
          <path id="Trazado_527" data-name="Trazado 527" d="M139.125,245.608a168.759,168.759,0,0,1-19.35-1.365c-15.183-1.769-30.993-3.694-46.993-5.727-3.981-.508-8.49-1.082-12.13-3.379-4.843-3.078-7.659-8.684-10.383-14.105-.252-.5-.505-1.006-.757-1.5-6.408-12.617-14.776-23.842-22.868-34.7C18.8,174.307,11.387,164.366,6.33,153.957c-6.382-13.282-7.889-25.388-4.744-38.1,3.689-14.907,13.939-30.785,31.335-48.541a147.446,147.446,0,0,1,25.592-20.95C78.327,33.543,100.33,25.44,119.24,19.2c23.545-7.75,43.848-12.979,62.068-15.987,22.5-3.718,42.29-4.207,60.485-1.5,5.109.758,10.883,1.922,14.77,6.117,6.776,7.333,5.409,20.24,2.923,33.1L249.89,90.6c-2.126,11-4.535,23.473-10.372,34.081a113.837,113.837,0,0,1-10.175,14.706c-2.425,3.138-4.931,6.38-7.178,9.762a133.86,133.86,0,0,0-10.991,20.931c-2.081,4.807-4.062,9.79-5.978,14.608-8.336,20.961-16.208,40.761-33.32,52.222-10.055,6.73-21.305,8.694-32.751,8.694M217.789.238a223.722,223.722,0,0,0-36.424,3.21c-18.2,3.006-38.488,8.233-62.018,15.978-18.891,6.227-40.871,14.321-60.656,27.128A147.284,147.284,0,0,0,33.146,67.467C15.78,85.192,5.548,101.038,1.869,115.908-1.264,128.57.239,140.631,6.6,153.87c5.048,10.39,12.453,20.321,20.292,30.837,8.1,10.863,16.472,22.094,22.888,34.728l.759,1.507c2.709,5.393,5.51,10.97,10.291,14.005,3.58,2.262,8.052,2.833,12,3.333,16,2.032,31.807,3.961,46.987,5.727,17.682,2.055,36.254,3.186,51.879-7.278,17.047-11.415,24.907-31.182,33.229-52.111,1.916-4.818,3.9-9.8,5.982-14.613a134.108,134.108,0,0,1,11.008-20.968c2.251-3.386,4.76-6.634,7.188-9.773a113.836,113.836,0,0,0,10.157-14.676c5.82-10.578,8.226-23.033,10.35-34.021l9.6-49.672c2.475-12.805,3.84-25.654-2.869-32.916C252.511,3.851,246.8,2.7,241.743,1.951A162.508,162.508,0,0,0,217.789.238" transform="translate(76.916 164.692)" fill="none" stroke="#4b3c8c" stroke-width="1"/>
          <path id="Trazado_528" data-name="Trazado 528" d="M120.665,214.865a145.586,145.586,0,0,1-17.23-1.253c-13.453-1.62-27.247-3.391-41-5.261-3.47-.473-7.4-1.011-10.554-3.025-4.264-2.725-6.743-7.648-9.142-12.409-.215-.424-.428-.848-.642-1.27-5.447-10.705-12.416-20.294-19.155-29.564-6.931-9.537-13.476-18.546-17.806-27.965-5.334-11.607-6.48-22.222-3.6-33.409C4.879,87.7,13.8,73.826,28.817,58.288A129.277,129.277,0,0,1,51.011,39.76c17.521-11.525,36.731-18.569,53.212-23.939C148.446,1.454,182.452-2.968,211.235,1.9c4.4.744,9.367,1.85,12.677,5.544,5.79,6.471,4.6,17.739,2.447,28.952l-8.319,43.427c-1.842,9.616-3.93,20.516-8.956,29.814a101.773,101.773,0,0,1-8.864,13.077c-2.064,2.725-4.2,5.544-6.117,8.473a132.26,132.26,0,0,0-9.663,18.372c-1.665,3.777-3.277,7.68-4.837,11.456-7.378,17.869-15.008,36.343-30.563,46.446-8.8,5.716-18.516,7.4-28.375,7.4M29.043,58.436C14.058,73.944,5.153,87.788,1.818,100.757-1.047,111.9.094,122.471,5.409,134.034c4.32,9.4,10.86,18.4,17.783,27.925,6.745,9.28,13.718,18.875,19.172,29.594q.323.633.644,1.273c2.384,4.732,4.85,9.625,9.053,12.314,3.092,1.976,6.819,2.484,10.425,2.973,13.748,1.873,27.541,3.643,40.992,5.261,15.375,1.849,31.545,2.893,45.385-6.1,15.488-10.059,23.1-28.5,30.468-46.337,1.559-3.775,3.173-7.68,4.839-11.461a132.426,132.426,0,0,1,9.679-18.4c1.925-2.937,4.061-5.757,6.126-8.487a101.5,101.5,0,0,0,8.845-13.049c5.013-9.271,7.1-20.152,8.936-29.754l8.319-43.427c2.14-11.162,3.332-22.374-2.392-28.776-3.251-3.625-8.16-4.714-12.506-5.451C182.452-2.737,148.5,1.688,104.33,16.044c-16.462,5.361-35.647,12.4-53.139,23.9a129,129,0,0,0-22.148,18.49" transform="translate(92.587 178.581)" fill="none" stroke="#4b3c8c" stroke-width="1"/>
          <path id="Trazado_529" data-name="Trazado 529" d="M102.158,184.175a122.618,122.618,0,0,1-15.111-1.147c-11.445-1.435-23.222-3.048-35.007-4.793-3.1-.461-6.3-.938-8.976-2.67-3.687-2.385-5.836-6.629-7.914-10.733-.17-.341-.342-.677-.513-1.013-4.49-8.8-10.074-16.76-15.473-24.454-6-8.548-11.661-16.62-15.269-25.038C-5.031,93.51,1.179,74.065,24.658,49.313a111.118,111.118,0,0,1,18.8-16.11c15.3-10.283,32.459-16.472,45.7-20.713C126.166.67,156.087-2.715,180.625,2.141c3.684.728,7.845,1.773,10.588,4.967,4.8,5.609,3.783,15.239,1.967,24.811L186.138,69.1c-1.551,8.193-3.31,17.48-7.542,25.541a91.3,91.3,0,0,1-7.555,11.457c-1.7,2.313-3.457,4.7-5.055,7.182a126.505,126.505,0,0,0-8.333,15.811c-1.281,2.818-2.54,5.718-3.759,8.525-6.776,15.609-13.783,31.752-27.741,40.453-7.536,4.7-15.728,6.107-24,6.107M24.886,49.456h0C1.475,74.139-4.721,93.518,4.168,114.249c3.6,8.4,9.256,16.46,15.246,25,5.4,7.7,10.991,15.665,15.487,24.482.172.336.344.675.514,1.013,2.064,4.077,4.2,8.293,7.825,10.641,2.618,1.694,5.787,2.167,8.85,2.624,11.782,1.743,23.557,3.355,35,4.788,13.065,1.634,26.836,2.6,38.89-4.913,13.891-8.659,20.882-24.765,27.644-40.342,1.219-2.807,2.478-5.709,3.76-8.529a126.62,126.62,0,0,1,8.348-15.839c1.6-2.482,3.362-4.879,5.062-7.194a91.132,91.132,0,0,0,7.538-11.426c4.218-8.034,5.974-17.3,7.522-25.485L192.9,31.881c1.8-9.521,2.822-19.1-1.919-24.636-2.684-3.127-6.785-4.154-10.419-4.872-24.476-4.842-54.344-1.46-91.3,10.339C76.041,16.946,58.909,23.123,43.639,33.388A110.7,110.7,0,0,0,24.886,49.456" transform="translate(108.311 192.419)" fill="none" stroke="#4b3c8c" stroke-width="1"/>
          <path id="Trazado_530" data-name="Trazado 530" d="M83.555,153.578a98.247,98.247,0,0,1-12.819-1.013c-9.546-1.266-19.307-2.721-29.013-4.327-2.432-.4-5.186-.858-7.4-2.316-3.114-2.051-4.934-5.625-6.694-9.083l-.374-.732a193.478,193.478,0,0,0-11.76-19.2C10.41,109.3,5.61,102.111,2.731,94.656-3.923,77.41,1.415,61.2,20.581,40.452a91.627,91.627,0,0,1,15.4-13.686c10.1-6.99,21.876-12.386,38.184-17.491C104.241-.1,129.788-2.383,150.1,2.5c2.971.714,6.322,1.7,8.495,4.392,3.813,4.751,2.969,12.74,1.488,20.667L154.316,58.49c-1.266,6.8-2.7,14.511-6.124,21.274a80.335,80.335,0,0,1-6.255,9.857c-1.336,1.893-2.715,3.85-3.984,5.868a127.567,127.567,0,0,0-7.007,13.246c-.8,1.708-1.609,3.458-2.388,5.15-6.233,13.537-12.679,27.536-25.212,34.907-6.257,3.678-13.083,4.786-19.791,4.786M20.812,40.6h0c-19.1,20.678-24.428,36.825-17.8,53.99,2.868,7.433,7.664,14.608,12.74,22.205a193.348,193.348,0,0,1,11.772,19.223l.374.732c1.747,3.43,3.553,6.979,6.609,8.99,2.16,1.421,4.761,1.852,7.277,2.269,9.7,1.606,19.462,3.059,29,4.323,10.294,1.358,22.136,2.3,32.4-3.732,12.463-7.328,18.892-21.292,25.111-34.8.78-1.691,1.584-3.441,2.39-5.15A127.451,127.451,0,0,1,137.7,95.38c1.272-2.023,2.654-3.984,3.991-5.877a80.056,80.056,0,0,0,6.236-9.832c3.408-6.735,4.843-14.43,6.108-21.218L159.8,27.517c1.471-7.878,2.315-15.816-1.443-20.5-2.119-2.623-5.28-3.56-8.337-4.294C129.772-2.138,104.284.143,74.268,9.5c-16.276,5.1-28.027,10.479-38.1,17.45A91.359,91.359,0,0,0,20.812,40.6" transform="translate(123.954 206.14)" fill="none" stroke="#4b3c8c" stroke-width="1"/>
          <path id="Trazado_531" data-name="Trazado 531" d="M65.154,123.152a75.828,75.828,0,0,1-10.679-.89c-7.682-1.1-15.428-2.4-23.023-3.856a15.357,15.357,0,0,1-5.822-1.961c-2.542-1.717-4.032-4.621-5.475-7.43l-.234-.455c-2.474-4.8-5.268-9.294-7.969-13.635-4.22-6.784-8.207-13.19-10.334-19.781-4.4-13.647.062-26.624,14.936-43.387a73.881,73.881,0,0,1,12-11.268c8.112-5.862,17.858-10.4,30.668-14.266A143.583,143.583,0,0,1,90.883.229c10.8-.709,20.466.227,28.74,2.784,2.359.728,4.795,1.625,6.4,3.82,2.823,3.889,2.153,10.237,1.007,16.52q-2.242,12.345-4.486,24.69c-.982,5.407-2.1,11.538-4.71,17.005a69.475,69.475,0,0,1-4.986,8.339c-.959,1.446-1.951,2.941-2.878,4.47-2,3.305-3.753,6.8-5.679,10.689l-.658,1.333c-5.76,11.655-11.716,23.707-23.046,29.8a31.963,31.963,0,0,1-15.431,3.477M97.716.269c-11.655,0-24.725,2.072-38.391,6.177C46.55,10.307,36.834,14.824,28.748,20.667A73.528,73.528,0,0,0,16.787,31.9C1.969,48.6-2.484,61.513,1.9,75.083,4.016,81.652,8,88.046,12.208,94.816c2.7,4.346,5.5,8.84,7.977,13.651l.234.454c1.43,2.784,2.907,5.66,5.394,7.338a15.058,15.058,0,0,0,5.7,1.915c7.591,1.46,15.332,2.756,23.008,3.856,14.7,2.091,21.136.007,25.9-2.554,11.255-6.047,17.193-18.064,22.937-29.687l.658-1.331c1.929-3.9,3.689-7.4,5.688-10.708.931-1.534,1.925-3.032,2.885-4.477a69.786,69.786,0,0,0,4.971-8.313c2.6-5.442,3.712-11.558,4.694-16.954q2.244-12.345,4.485-24.691c1.137-6.237,1.808-12.536-.971-16.363-1.555-2.127-3.942-3-6.253-3.717A74.208,74.208,0,0,0,97.716.269" transform="translate(139.548 219.697)" fill="none" stroke="#4b3c8c" stroke-width="1"/>
          <path id="Trazado_532" data-name="Trazado 532" d="M46.92,93.1a54.65,54.65,0,0,1-8.593-.792c-5.778-.932-11.51-2.074-17.032-3.393a12.023,12.023,0,0,1-4.241-1.606c-1.983-1.4-3.15-3.646-4.281-5.82L12.7,81.36c-1.281-2.461-2.618-4.846-3.91-7.152C5.27,67.92,1.942,61.985.618,55.977c-2.2-9.978,1.4-19.716,12.021-32.568a53.194,53.194,0,0,1,8.608-8.844C27.38,9.821,34.954,6.21,44.405,3.521,61.486-1.3,77.842-1.165,89.27,3.885a8.763,8.763,0,0,1,4.3,3.242c1.926,3.164,1.281,8.045.526,12.372L90.887,37.946a55.784,55.784,0,0,1-3.295,12.731,59.824,59.824,0,0,1-3.8,7.027c-.56.934-1.137,1.9-1.693,2.871-.966,1.7-1.879,3.442-2.845,5.282q-.744,1.415-1.508,2.851c-4.508,8.41-10.13,17.76-19.808,22.205A26.136,26.136,0,0,1,46.92,93.1M12.879,23.544C2.3,36.337-1.282,46.025.9,55.936c1.317,5.975,4.638,11.9,8.153,18.173,1.294,2.309,2.631,4.693,3.913,7.159l.069.132c1.117,2.149,2.273,4.372,4.2,5.732a11.766,11.766,0,0,0,4.134,1.56c5.514,1.316,11.236,2.457,17.007,3.388,6.023.967,13.041,1.555,19.414-1.374,9.6-4.409,15.2-13.716,19.684-22.094.512-.953,1.012-1.906,1.508-2.848.966-1.84,1.88-3.581,2.848-5.289.557-.976,1.136-1.94,1.7-2.874a59.843,59.843,0,0,0,3.789-7A55.733,55.733,0,0,0,90.6,37.913l3.208-18.447c.8-4.607,1.3-9.277-.5-12.233a8.51,8.51,0,0,0-4.176-3.14C77.774-.922,61.5-1.052,44.5,3.744c-9.41,2.679-16.951,6.274-23.055,10.993a53.045,53.045,0,0,0-8.565,8.807" transform="translate(155.025 232.905)" fill="none" stroke="#4b3c8c" stroke-width="1"/>
          <path id="Trazado_533" data-name="Trazado 533" d="M29.317,63.646a35.232,35.232,0,0,1-6.752-.725,85.827,85.827,0,0,1-11.049-2.93A9.012,9.012,0,0,1,8.862,58.74a11.667,11.667,0,0,1-2.989-4.016C2.917,49.141.158,43.172.007,37.362c-.159-6.1,2.48-12.393,9.1-21.733q.37-.525.73-1.043A27.849,27.849,0,0,1,14.32,9.2,37.176,37.176,0,0,1,29.973,1.378c11.342-2.8,22.864-1.254,29.35,3.954a6.427,6.427,0,0,1,2.185,2.663c.888,2.255.487,5.421.042,8.214L61.219,18.3q-.8,5.054-1.6,10.112a49.763,49.763,0,0,1-1.878,8.457,57.978,57.978,0,0,1-3.12,6.988c-.838,1.68-1.832,3.639-3.034,5.578C47.4,56.2,42.043,60.666,35.667,62.713a20.555,20.555,0,0,1-6.35.934M41.1.235a46.211,46.211,0,0,0-11.047,1.37A36.87,36.87,0,0,0,14.532,9.364a27.587,27.587,0,0,0-4.44,5.34c-.241.346-.483.7-.732,1.045C2.764,25.048.138,31.308.295,37.357c.15,5.769,2.9,11.711,5.844,17.273a11.475,11.475,0,0,0,2.921,3.934,8.736,8.736,0,0,0,2.568,1.209A85.569,85.569,0,0,0,22.633,62.69c5.217,1.022,9.326.959,12.93-.2,6.306-2.024,11.611-6.452,15.768-13.165,1.2-1.933,2.188-3.884,3.022-5.563A57.945,57.945,0,0,0,57.466,36.8a49.8,49.8,0,0,0,1.867-8.425q.8-5.055,1.6-10.11l.329-2.091c.442-2.765.84-5.9-.028-8.107A6.2,6.2,0,0,0,59.121,5.5C54.835,2.059,48.314.235,41.1.235" transform="translate(170.116 245.552)" fill="none" stroke="#4b3c8c" stroke-width="1"/>
          <path id="Trazado_534" data-name="Trazado 534" d="M15.364,35.437h-.01c-4.981,0-9.966-1.713-12.7-4.355-2.122-2.049-4.063-5.7-1.256-11.44a45.294,45.294,0,0,1,2.734-4.608A32.333,32.333,0,0,0,7.564,8.791c.107-.3.205-.6.3-.895a8.955,8.955,0,0,1,1.51-3.124A13.825,13.825,0,0,1,23.933.579c4.933,1.456,7.949,5.166,7.5,9.236L29.883,23.962c-.255,2.323-.543,4.953-2.47,7.127-2.339,2.642-7.067,4.348-12.05,4.348M19.819.237a12.982,12.982,0,0,0-10.2,4.67,8.768,8.768,0,0,0-1.47,3.053c-.1.3-.2.6-.306.9a32.507,32.507,0,0,1-3.452,6.286A45.351,45.351,0,0,0,1.666,19.73c-2.753,5.632-.863,9.2,1.208,11.2,2.68,2.589,7.578,4.267,12.479,4.271h.01c4.893,0,9.531-1.669,11.815-4.251,1.88-2.121,2.165-4.719,2.417-7.011L31.147,9.792c.5-4.572-3.311-7.81-7.311-8.99A14.377,14.377,0,0,0,19.819.237" transform="translate(183.216 257.275)" fill="none" stroke="#4b3c8c" stroke-width="1"/>
        </g>
      </g>
    </g>
  </g>
</svg>
