<?xml version="1.0" encoding="UTF-8"?>
<svg id="Capa_2" data-name="Capa 2" xmlns="http://www.w3.org/2000/svg" viewBox="0 0 697.53 178.15">
  <g id="Capa_1-2" data-name="Capa 1">
    <g>
      <path d="M91.04,20.82C74.9-6.26,26.42,3.79,0,1.97v111.8h25.88v-30.83c14.12-.14,36.49,1.4,48.39-4.87,22.17-8.53,28.94-38.35,16.77-57.26ZM64.85,56.76c-6.93,7.3-28.88,4.67-38.97,5.11V23.06c10.16.46,31.98-2.2,38.97,5.11,7.84,6.17,7.93,22.38,0,28.59Z"/>
      <polygon points="141.19 92.69 141.19 1.97 115.32 1.97 115.32 113.78 197.25 113.78 197.25 92.69 141.19 92.69"/>
      <path d="M295.96,113.78h27.15L273.12,1.97h-25.55l-49.83,111.8h26.51l9.96-23.96h51.83l9.92,23.96ZM242.38,70.17l17.79-42.79,17.73,42.79h-35.52Z"/>
      <polygon points="460.79 113.78 460.47 1.97 439.22 1.97 398.05 71.4 356.17 1.97 334.77 1.97 334.77 113.78 359.05 113.78 359.05 48.12 391.79 101.96 403.45 101.96 436.37 46.67 436.51 113.78 460.79 113.78"/>
      <path d="M536.97,115.69c-65.1,1.67-48.87-71.01-50.63-113.72h25.88v61.65c-.04,18.9,6.84,29.7,24.92,30.03,18.08-.33,24.95-11.13,24.92-30.03,0,0,0-61.65,0-61.65h25.55c-1.77,42.81,14.46,115.35-50.63,113.72Z"/>
      <path d="M649.89,115.69c-15.42.09-34.03-4.22-45.52-12.94l8.78-19.49c10.72,11.78,72.11,21.33,54.95-7.43-13.95-8.64-34.46-7.52-48.56-17.01-21.2-12.36-14.75-45.94,7.91-54.06,18.26-7.86,47.45-5.92,65.09,5.19l-7.99,19.65c-30.38-20.88-75.64.53-39.45,15.18,16.28,5.08,38.46,5.79,48.64,21.72,14.48,27.89-15.13,51.8-43.84,49.19Z"/>
    </g>
    <g>
      <path d="M0,177.94v-23.26c4.98.29,13.56-1.42,16.58,3.61,5.38,11.02-7.56,13.06-15.65,12.04l.76-.8v8.41H0ZM1.7,169.63l-.76-.83c5.27-.15,15.31,1.55,15.05-6.28.28-7.86-9.78-6.17-15.05-6.31l.76-.83v14.25Z"/>
      <path d="M33.39,177.94v-23.26h1.69v21.73h13.39v1.53h-15.08Z"/>
      <path d="M58.91,177.94l10.7-23.26h1.69l10.7,23.26h-1.83l-10.1-22.2h.73l-10.07,22.2h-1.83ZM62.83,171.4l.56-1.43h13.92l.56,1.43h-15.05Z"/>
      <path d="M96.19,177.94v-23.26h1.43l16.58,21.17h-.76v-21.17h1.69v23.26h-1.4l-16.61-21.17h.76v21.17h-1.69Z"/>
      <path d="M133.21,177.94v-23.26h15.55v1.53h-13.86v20.2h14.35v1.53h-16.05ZM134.7,166.88v-1.5h12.59v1.5h-12.59Z"/>
      <path d="M161.52,177.94l10.7-23.26h1.69l10.7,23.26h-1.83l-10.1-22.2h.73l-10.07,22.2h-1.83ZM165.44,171.4l.56-1.43h13.92l.56,1.43h-15.05Z"/>
      <path d="M208.3,178.11c-22.7-1.31-8.92-34.59,8.27-20.37l-1.06,1.1c-22.92-14.04-22.78,29.06,0,14.92l1.06,1.1c-2.11,2.27-5.15,3.25-8.27,3.26Z"/>
      <path d="M231.89,177.94v-23.26h1.69v23.26h-1.69Z"/>
      <path d="M261.53,178.11c-15.75.62-15.75-24.21,0-23.59,15.75-.62,15.75,24.21,0,23.59ZM261.53,176.55c13.51.5,13.51-20.97,0-20.47-13.55-.5-13.54,20.96,0,20.47ZM259.63,152.79l4.62-3.92h2.39l-5.22,3.92h-1.79Z"/>
      <path d="M289.47,177.94v-23.26h1.43l16.58,21.17h-.76v-21.17h1.69v23.26h-1.4l-16.61-21.17h.76v21.17h-1.69Z"/>
      <path d="M344.99,177.94v-23.26h1.43l10.8,18.64h-.76l10.77-18.64h1.4l.03,23.26h-1.66l-.03-20.7h.47l-10.2,17.61h-.83l-10.23-17.61h.5v20.7h-1.66Z"/>
      <path d="M395.83,178.11c-12.33.72-8.85-15.7-9.3-23.42h1.69c.74,6.58-3.31,22.52,7.64,21.86,10.91.66,6.88-15.32,7.61-21.86h1.69c-.45,7.76,3.03,24.15-9.34,23.42Z"/>
      <path d="M429.16,178.11c-2.99.03-6.56-1.06-8.47-3.16l.76-1.26c6.68,7.98,23.25-2.13,8.67-6.35-17.4-2.26-5.29-19.06,6.45-10.73l-.63,1.36c-3.78-2.75-12.54-3.29-12.93,2.69.71,6.59,10.66,3.58,13.72,8.37,2.91,4.92-2.24,9.63-7.58,9.07Z"/>
      <path d="M453.25,177.94v-23.26h15.55v1.53h-13.86v20.2h14.35v1.53h-16.05ZM454.74,166.88v-1.5h12.59v1.5h-12.59Z"/>
      <path d="M495.21,178.11c-15.75.62-15.75-24.21,0-23.59,15.75-.62,15.75,24.21,0,23.59ZM495.21,176.55c13.51.5,13.51-20.97,0-20.47-13.55-.5-13.54,20.96,0,20.47Z"/>
      <path d="M523.15,177.94v-23.26h1.69v21.73h13.39v1.53h-15.08Z"/>
      <path d="M561.96,178.11c-15.75.62-15.75-24.21,0-23.59,15.75-.62,15.75,24.21,0,23.59ZM561.96,176.55c13.51.5,13.51-20.97,0-20.47-13.55-.5-13.54,20.96,0,20.47ZM560.07,152.79l4.62-3.92h2.39l-5.22,3.92h-1.79Z"/>
      <path d="M599.84,178.11c-22.94-1.36-8.95-34.57,8.41-20.4l-1.06,1.13c-23.11-14.05-23.23,28.93,0,14.99l.96,1.3c-2.15,2.08-5.29,2.99-8.31,2.99ZM608.15,175.12l-1.63-.2v-8.5h1.63v8.71Z"/>
      <path d="M625.56,177.94v-23.26h1.69v23.26h-1.69Z"/>
      <path d="M655.16,178.11c-22.7-1.31-8.92-34.59,8.27-20.37l-1.06,1.1c-22.92-14.04-22.78,29.06,0,14.92l1.06,1.1c-2.11,2.27-5.15,3.25-8.27,3.26Z"/>
      <path d="M674.24,177.94l10.7-23.26h1.69l10.7,23.26h-1.83l-10.1-22.2h.73l-10.07,22.2h-1.83ZM678.16,171.4l.56-1.43h13.92l.56,1.43h-15.05Z"/>
    </g>
  </g>
</svg>