<svg xmlns="http://www.w3.org/2000/svg" xmlns:xlink="http://www.w3.org/1999/xlink" width="164" height="335" viewBox="0 0 164 335">
  <defs>
    <clipPath id="clip-path">
      <rect id="Rect치ngulo_101" data-name="Rect치ngulo 101" width="164" height="335" transform="translate(-0.148 -0.37)" fill="#fff" stroke="#707070" stroke-width="1"/>
    </clipPath>
    <clipPath id="clip-path-2">
      <rect id="Rect치ngulo_99" data-name="Rect치ngulo 99" width="329.607" height="400.517" fill="none" stroke="#fff" stroke-width="1"/>
    </clipPath>
  </defs>
  <g id="Enmascarar_grupo_8" data-name="Enmascarar grupo 8" transform="translate(0.148 0.37)" clip-path="url(#clip-path)">
    <g id="Grupo_47" data-name="Grupo 47" transform="matrix(0.777, -0.629, 0.629, 0.777, -90.4, 217.781)" opacity="0.08">
      <g id="Grupo_46" data-name="Grupo 46" clip-path="url(#clip-path-2)">
        <path id="Trazado_521" data-name="Trazado 521" d="M196.808,400.517a190.41,190.41,0,0,1-19.094-1.3c-3.37-.343-6.856-.7-10.3-.949-9.222-.689-17.918.152-26.326.965l-.15.014c-11.149,1.075-20.472,1.667-30.456-1.222-10.685-3.093-21.767-7.464-32.485-11.69q-2.6-1.024-5.19-2.043l-1.347-.529c-5.366-2.108-10.913-4.287-15.807-7.382-7.5-4.765-14.391-12.193-21.057-22.707a112.761,112.761,0,0,1-9.534-18.388c-4.534-11.4-6.871-23.389-6.408-32.883.081-1.669.289-3.266.491-4.81a40.193,40.193,0,0,0,.473-8.125c-.3-4.692-1.893-10.2-3.173-14.632l-.979-3.388C9.2,249.81,2.725,227.438.674,204.013c-1.454-16.614-1.386-34.45,8.858-52.3,7.709-13.437,21.523-22.082,36.146-31.234,2.044-1.28,4.157-2.6,6.236-3.928,30.628-19.535,64.191-33.853,96.65-47.7,4.254-1.816,8.653-3.692,12.958-5.543,32.723-14.075,63.259-31.323,88.814-46.34,9.9-5.82,18.589-10.414,28.786-13.921,5.142-1.771,15.272-4.412,25.368-2.2a28.108,28.108,0,0,1,5.72,1.923c5.308,2.45,9.012,5.619,11.326,9.692,8.554,15.051,8.255,35.206,7.968,54.7q-.024,1.52-.044,3.027l-.755,86.146q-.019,2.222-.037,4.446c-.149,18.486-.3,37.6-3.764,55.256a97.616,97.616,0,0,1-9.081,26.2c-2.289,4.494-5.081,8.923-7.78,13.208l-.875,1.39c-1.215,1.939-2.23,3.568-3.235,5.219-10.466,17.215-19.267,36.082-27.778,54.327-6.605,14.161-13.436,28.8-20.931,42.395-7.52,13.655-17.223,28.62-32.177,36.082-8.691,4.371-17.379,5.664-26.238,5.664m-36.473-2.691c2.332,0,4.695.077,7.095.256,3.453.252,6.941.607,10.313.949,15.645,1.592,30.422,3.091,45.184-4.333,14.9-7.437,24.583-22.371,32.088-36,7.493-13.586,14.323-28.225,20.927-42.384,8.513-18.249,17.316-37.119,27.786-54.345,1.006-1.651,2.021-3.28,3.238-5.219l.875-1.39c2.7-4.281,5.487-8.709,7.771-13.2A97.442,97.442,0,0,0,324.679,216c3.457-17.639,3.611-36.75,3.761-55.229q.019-2.224.038-4.444l.754-86.147q.02-1.507.043-3.027c.288-19.473.586-39.609-7.947-54.622-2.292-4.035-5.967-7.179-11.232-9.61a27.868,27.868,0,0,0-5.667-1.9c-10.027-2.189-20.1.434-25.219,2.194-10.177,3.5-18.849,8.089-28.742,13.9-25.56,15.02-56.105,32.273-88.84,46.354-4.3,1.851-8.7,3.729-12.959,5.543-32.449,13.843-66,28.157-96.613,47.682l-.071-.071.071.071c-2.081,1.328-4.194,2.65-6.238,3.929-14.6,9.139-28.393,17.769-36.08,31.166C-.485,169.6-.551,187.41.9,204c2.049,23.413,8.523,45.777,14.782,67.4l.98,3.386c1.281,4.437,2.875,9.958,3.178,14.665a40.286,40.286,0,0,1-.474,8.155c-.2,1.542-.409,3.134-.49,4.8-.461,9.474,1.871,21.437,6.4,32.819a112.647,112.647,0,0,0,9.52,18.363c6.651,10.489,13.519,17.9,21,22.647,4.876,3.08,10.413,5.255,15.767,7.358l1.347.531q2.593,1.016,5.19,2.043c10.712,4.224,21.789,8.593,32.462,11.682,9.937,2.877,19.232,2.284,30.352,1.211l.149-.014c6.235-.6,12.628-1.221,19.279-1.221" transform="translate(0 0)" fill="none" stroke="#fff" stroke-width="1"/>
        <path id="Trazado_522" data-name="Trazado 522" d="M182.3,348.611c-4.841,0-9.755-.288-14.758-.582q-1.933-.113-3.871-.222c-7.825-.442-15.363-.218-22.653,0l-.969.028c-9.582.29-18.24.358-27.209-1.681-10.242-2.326-20.8-5.4-31-8.38q-2.026-.592-4.05-1.181l-.582-.17c-5.219-1.524-10.615-3.1-15.26-6-7.594-4.758-12.962-12.676-17.63-20.522-3.647-6.168-6.409-11.286-8.692-16.1a152.976,152.976,0,0,1-10.412-28.605c-.374-1.561-.667-3.087-.951-4.562a71.944,71.944,0,0,0-1.641-7.149,115.265,115.265,0,0,0-4.7-12.136l-.224-.52C9.525,221.785,1.44,201.336.189,179.049c-.629-11.222-.25-28.182,10.264-45.834,7.049-11.836,19.214-20.861,32.1-30.419q1.643-1.219,3.308-2.458c33-24.6,71.213-39.621,104.926-52.875,16.012-6.295,31.813-13.054,47.094-19.589,14.214-6.079,27.64-11.821,40.562-16.918a182.585,182.585,0,0,1,29.976-9.306c6.015-1.274,15.025-2.468,23.8-.909a34.98,34.98,0,0,1,5.452,1.427c5.545,1.955,9.271,4.512,11.723,8.052,8.781,12.664,7.416,32.033,6.211,49.124l-.013.186-5.044,76.288c-1.076,16.3-2.187,33.16-6.933,48.4a100.563,100.563,0,0,1-10.521,22.544c-1.734,2.879-3.652,5.768-5.508,8.561-.882,1.329-1.795,2.7-2.682,4.069-1.046,1.61-1.991,3.1-2.89,4.564-9.249,15.047-16.577,31.882-23.664,48.162-5.475,12.578-11.135,25.582-17.576,37.465-5.951,10.991-14.5,24.57-27.917,32.085-9.923,5.594-20.065,6.949-30.552,6.949m-28.383-1.24c3.207,0,6.462.068,9.77.254,1.292.07,2.582.147,3.871.222,15.8.929,30.726,1.808,45.164-6.334,13.37-7.487,21.9-21.038,27.838-32.008,6.438-11.875,12.1-24.877,17.571-37.452,7.089-16.285,14.42-33.126,23.674-48.183.9-1.462,1.847-2.955,2.892-4.567.889-1.365,1.8-2.739,2.685-4.069,1.855-2.793,3.772-5.681,5.5-8.555a100.489,100.489,0,0,0,10.506-22.507c4.74-15.22,5.851-32.07,6.925-48.364l5.058-76.473c1.2-17.065,2.566-36.407-6.182-49.024-2.428-3.5-6.12-6.036-11.617-7.973a35.013,35.013,0,0,0-5.41-1.417c-8.732-1.547-17.707-.361-23.7.91a182.138,182.138,0,0,0-29.933,9.292c-12.919,5.1-26.342,10.838-40.556,16.916C182.7,34.572,166.9,41.33,150.881,47.627c-33.7,13.247-71.893,28.26-104.872,52.846l-.077-.069.077.069q-1.663,1.238-3.309,2.458c-12.863,9.544-25.015,18.56-32.045,30.362C.164,150.909-.213,167.838.415,179.042c1.25,22.261,9.33,42.7,17.5,61.719l.224.521a116.059,116.059,0,0,1,4.707,12.152,72.793,72.793,0,0,1,1.643,7.164c.284,1.474.577,3,.95,4.555a152.64,152.64,0,0,0,10.4,28.576c2.28,4.814,5.039,9.926,8.683,16.091,4.658,7.826,10.009,15.721,17.566,20.458,4.615,2.88,10,4.451,15.2,5.972l.581.17q2.025.587,4.05,1.179c10.2,2.977,20.751,6.054,30.986,8.379,8.936,2.031,17.582,1.956,27.138,1.674l.97-.029c4.216-.125,8.515-.252,12.906-.252" transform="translate(7.107 35.892)" fill="none" stroke="#fff" stroke-width="1"/>
        <path id="Trazado_523" data-name="Trazado 523" d="M166.62,297.584c-2.167,0-4.3-.046-6.377-.113-6.69-.213-13.68-.523-20.771-.922-7.669-.411-15.838-.915-23.956-2.142-9.853-1.488-19.918-3.227-29.652-4.91l-2.775-.479c-5.023-.872-10.2-1.771-14.531-4.43-6.335-3.9-10.189-10.969-13.917-17.805l-.291-.532c-2.29-4.214-4.732-8.434-7.094-12.517l-.755-1.3c-3.352-5.745-6.652-11.287-9.842-16.648q-2.35-3.948-4.564-7.683c-.858-1.449-1.7-2.9-2.51-4.3-1.164-2.008-2.368-4.084-3.639-6.188-1.368-2.262-2.845-4.6-4.274-6.858-.8-1.272-1.611-2.546-2.405-3.82C9.4,191.126.245,173.8.009,154.209c-.22-13.584,3.6-26.46,11.668-39.363C18,104.742,27.611,95.309,40.1,84.255l.084.061-.084-.061c29.688-26.281,65.8-40.35,100.246-52.512,26.981-9.525,57.562-20.322,86.5-26.67A222.613,222.613,0,0,1,258.011.383a109.373,109.373,0,0,1,22.24.379,51.719,51.719,0,0,1,5.181.935c5.607,1.335,9.459,3.372,12.123,6.408,8.335,9.5,6.679,26.089,4.474,40.9l-9.072,61.835c-2.08,14.164-4.231,28.813-10.328,41.689-3.23,6.822-7.5,12.824-11.962,18.884q-.973,1.326-1.961,2.654c-1.922,2.593-3.911,5.273-5.764,8-.867,1.28-1.723,2.595-2.546,3.912-8.03,12.876-13.884,27.682-19.544,42-4.346,10.991-8.84,22.357-14.226,32.528-7.04,13.3-14.557,22.228-23.655,28.093-11.741,7.589-24.581,8.988-36.35,8.988M267.768.185q-4.688,0-9.735.381a222.485,222.485,0,0,0-31.126,4.683c-28.922,6.347-59.495,17.139-86.469,26.663C106.016,44.064,69.927,58.125,40.27,84.377c-12.478,11.045-22.081,20.464-28.392,30.551C3.825,127.8.016,140.652.235,154.206c.236,19.55,9.383,36.857,19.233,52.648.794,1.272,1.6,2.548,2.406,3.821,1.429,2.26,2.907,4.6,4.275,6.861,1.27,2.1,2.476,4.181,3.641,6.189.812,1.4,1.651,2.846,2.508,4.3q2.207,3.728,4.565,7.682c3.191,5.362,6.49,10.905,9.843,16.65l.754,1.3c2.363,4.083,4.806,8.305,7.1,12.518l.291.534c3.716,6.815,7.558,13.861,13.846,17.732,4.287,2.636,9.442,3.531,14.428,4.4l2.788.481c9.731,1.681,19.8,3.422,29.646,4.91,8.106,1.224,16.267,1.728,23.93,2.139,7.09.4,14.076.71,20.764.922,13.34.415,28.733.109,42.576-8.836,9.069-5.845,16.565-14.75,23.589-28.021,5.382-10.163,9.873-21.524,14.217-32.512,5.665-14.325,11.521-29.138,19.559-42.026.822-1.319,1.68-2.636,2.548-3.919,1.857-2.734,3.845-5.416,5.769-8.011q.985-1.327,1.961-2.652c4.456-6.052,8.722-12.047,11.944-18.855,6.088-12.856,8.237-27.492,10.315-41.646l.071-.487,9-61.348c2.2-14.772,3.855-31.323-4.434-40.767-2.632-3-6.446-5.016-12-6.34a51.1,51.1,0,0,0-5.153-.927A96.071,96.071,0,0,0,267.768.185" transform="translate(13.909 71.661)" fill="none" stroke="#fff" stroke-width="1"/>
        <path id="Trazado_524" data-name="Trazado 524" d="M153.415,260.671a194.882,194.882,0,0,1-20.583-1.352c-16.42-1.757-33.13-3.554-51.087-5.5-4.355-.472-9.291-1-13.258-3.422-5.164-3.154-8.155-9.032-11.049-14.718-.3-.6-.607-1.2-.912-1.785-7.22-14-17.053-26.283-26.565-38.165C21.521,185.188,13.549,175.226,7.9,164.75c-7.565-14.048-9.627-26.822-6.49-40.2,3.726-15.88,14.936-32.76,34.272-51.6A158.718,158.718,0,0,1,63.82,51.2c20.843-12.817,43.789-21.226,65.48-28.4,26.892-8.9,47.475-14.482,66.739-18.113,24.569-4.628,46.252-5.814,66.29-3.622,5.693.621,12.137,1.654,16.544,6.05,7.654,7.637,6.169,21.381,3.424,35.094l-10.559,52.74c-2.341,11.691-4.994,24.943-11.494,36.15a116.443,116.443,0,0,1-11.118,15.147c-2.753,3.354-5.6,6.822-8.124,10.455a122.1,122.1,0,0,0-11.773,22.064c-2.562,6-4.907,12.265-7.175,18.322-8.057,21.526-15.668,41.857-32.929,53.843-10.847,7.557-22.962,9.742-35.71,9.742M242.319.182A249.58,249.58,0,0,0,196.09,4.865c-19.251,3.629-39.824,9.211-66.7,18.1C107.71,30.14,84.78,38.544,63.957,51.348a158.422,158.422,0,0,0-28.1,21.719C16.547,91.884,5.352,108.736,1.634,124.585-1.494,137.924.563,150.664,8.11,164.679c5.64,10.462,13.608,20.416,22.043,30.955,9.516,11.888,19.355,24.183,26.584,38.191q.457.888.912,1.787c2.882,5.663,5.861,11.518,10.976,14.642,3.917,2.388,8.823,2.92,13.152,3.386,17.956,1.942,34.666,3.74,51.084,5.5,20.163,2.158,39.625,3.145,56.115-8.346,17.211-11.95,24.812-32.256,32.861-53.755,2.269-6.059,4.614-12.325,7.176-18.331A122.248,122.248,0,0,1,240.8,156.611c2.527-3.64,5.377-7.11,8.132-10.467a116.045,116.045,0,0,0,11.1-15.124c6.487-11.182,9.137-24.421,11.476-36.1l10.559-52.74c2.737-13.671,4.221-27.367-3.378-34.951-4.354-4.344-10.746-5.366-16.4-5.983A183.1,183.1,0,0,0,242.319.182" transform="translate(23.396 94.68)" fill="none" stroke="#fff" stroke-width="1"/>
        <path id="Trazado_525" data-name="Trazado 525" d="M138.822,236.88a175.814,175.814,0,0,1-18.868-1.261c-14.8-1.614-29.972-3.293-46.374-5.135-3.95-.447-8.425-.95-12.018-3.15-4.711-2.891-7.443-8.25-10.085-13.433q-.405-.793-.809-1.58c-6.5-12.581-15.247-23.663-23.709-34.382-7.68-9.728-14.934-18.914-20.025-28.566-6.721-12.79-8.5-24.421-5.586-36.6C4.794,98.341,14.96,83.011,32.425,65.9h0A143.638,143.638,0,0,1,57.889,46.022C76.982,34.183,97.8,26.571,117.459,20.108,154.33,7.989,197.513-3.732,238.266,1.124c5.13.606,10.937,1.587,14.9,5.6,6.88,6.976,5.531,19.455,3.05,31.9l-9.554,47.925c-2.116,10.621-4.516,22.657-10.382,32.86A106.917,106.917,0,0,1,226.2,133.291c-2.47,3.041-5.025,6.186-7.3,9.478a115.453,115.453,0,0,0-10.729,20.089c-2.258,5.241-4.35,10.7-6.372,15.98-7.555,19.729-14.692,38.362-30.665,49.3-9.879,6.769-20.828,8.738-32.316,8.738M218.69.181c-34.7,0-70.153,9.912-101.144,20.1C97.9,26.735,77.1,34.341,58.027,46.168A143.453,143.453,0,0,0,32.6,66.02v0C15.16,83.1,5.01,98.407,1.57,112.806c-2.9,12.143-1.13,23.74,5.572,36.494,5.084,9.638,12.333,18.819,20.008,28.539,8.468,10.725,17.224,21.816,23.728,34.409.271.523.54,1.053.809,1.583,2.631,5.159,5.351,10.494,10.013,13.355,3.545,2.171,7.99,2.673,11.912,3.114,16.4,1.844,31.571,3.524,46.374,5.135,18.259,1.992,35.9,2.916,51.007-7.433,15.922-10.909,23.049-29.517,30.595-49.219,2.023-5.282,4.114-10.742,6.373-15.987a115.678,115.678,0,0,1,10.746-20.118c2.275-3.3,4.832-6.445,7.3-9.488a106.817,106.817,0,0,0,10.063-13.853c5.853-10.18,8.249-22.2,10.365-32.812L255.992,38.6c2.473-12.406,3.821-24.839-3-31.759-3.912-3.965-9.667-4.937-14.756-5.536A164.843,164.843,0,0,0,218.69.181" transform="translate(35.751 105.472)" fill="none" stroke="#fff" stroke-width="1"/>
        <path id="Trazado_526" data-name="Trazado 526" d="M124.093,213.129a155.27,155.27,0,0,1-17.037-1.165c-13.528-1.507-27.545-3.112-41.661-4.776-3.54-.418-7.551-.891-10.779-2.876-4.259-2.632-6.731-7.471-9.123-12.153-.235-.459-.468-.918-.7-1.372-5.769-11.159-13.434-21.029-20.847-30.577-6.923-8.916-13.463-17.338-18-26.172C.08,122.527-1.4,112.049,1.3,101.058,4.475,88.1,13.585,74.316,29.147,58.906A129.956,129.956,0,0,1,51.939,40.89,181.287,181.287,0,0,1,78.227,27.46c7.846-3.3,16.288-6.383,27.373-10,21.362-6.965,38.77-11.5,54.785-14.268,19.994-3.456,37.592-4.1,53.8-1.965,4.57.591,9.741,1.528,13.257,5.16,6.1,6.317,4.892,17.53,2.673,28.709l-8.549,43.111c-1.9,9.554-4.042,20.38-9.268,29.565a97.249,97.249,0,0,1-9.042,12.61c-2.188,2.731-4.451,5.554-6.468,8.5A109.287,109.287,0,0,0,187.1,147c-1.952,4.48-3.782,9.136-5.553,13.639-7.051,17.937-13.711,34.879-28.416,44.764-6.356,4.274-13.751,6.717-22.605,7.471-2.132.182-4.286.259-6.435.259M29.235,58.964l.088.057C13.784,74.407,4.69,88.169,1.521,101.094c-2.686,10.954-1.214,21.4,4.635,32.874,4.525,8.82,11.061,17.236,17.979,26.145,7.417,9.553,15.088,19.43,20.864,30.6.235.456.469.915.7,1.374,2.38,4.658,4.841,9.475,9.05,12.075,3.182,1.956,7.162,2.427,10.675,2.841,14.115,1.664,28.132,3.272,41.659,4.776,16.37,1.822,32.2,2.685,45.9-6.522,14.655-9.851,21.305-26.769,28.346-44.68,1.77-4.5,3.6-9.161,5.554-13.644a109.6,109.6,0,0,1,9.7-18.14c2.022-2.954,4.288-5.781,6.478-8.513a97.193,97.193,0,0,0,9.026-12.585c5.212-9.163,7.357-19.977,9.251-29.519l8.549-43.111c2.211-11.138,3.422-22.307-2.629-28.568-3.464-3.581-8.586-4.506-13.113-5.091C197.97-.724,180.4-.083,160.433,3.372c-16,2.766-33.4,7.3-54.749,14.257-29.9,9.759-43.878,17.309-53.606,23.4A129.883,129.883,0,0,0,29.322,59.021Z" transform="translate(48.124 116.218)" fill="none" stroke="#fff" stroke-width="1"/>
        <path id="Trazado_527" data-name="Trazado 527" d="M109.394,189.355A135.285,135.285,0,0,1,94.179,188.3c-11.939-1.364-24.37-2.848-36.95-4.415-3.13-.391-6.676-.834-9.538-2.605-3.808-2.373-6.023-6.7-8.164-10.875-.2-.388-.4-.775-.6-1.16C33.892,159.52,27.313,150.866,20.95,142.5c-6.169-8.114-12-15.778-15.973-23.8-5.018-10.24-6.2-19.573-3.73-29.372,2.9-11.493,10.96-23.734,24.639-37.423A115.506,115.506,0,0,1,46.009,35.749c15.58-9.888,32.88-16.135,47.75-20.943C112.273,8.83,128.237,4.8,142.563,2.48c17.7-2.866,33.252-3.243,47.56-1.155,4.017.585,8.558,1.482,11.613,4.716,5.328,5.653,4.253,15.6,2.3,25.516l-7.546,38.3c-1.672,8.482-3.566,18.1-8.156,26.275a87.735,87.735,0,0,1-8,11.338c-1.906,2.419-3.878,4.919-5.644,7.526a102.53,102.53,0,0,0-8.642,16.137c-1.636,3.706-3.194,7.548-4.7,11.262-6.555,16.16-12.745,31.425-26.2,40.261-7.906,5.189-16.752,6.7-25.752,6.7M171.248.183a179.322,179.322,0,0,0-28.64,2.475C128.3,4.976,112.345,9.005,93.843,14.977c-14.854,4.8-32.137,11.041-47.694,20.915A115.377,115.377,0,0,0,26.063,52.014C12.408,65.68,4.363,77.9,1.47,89.361c-2.464,9.761-1.282,19.06,3.718,29.267,3.969,8.01,9.791,15.667,15.955,23.774,6.368,8.375,12.952,17.034,18,26.774l.6,1.162c2.13,4.158,4.333,8.457,8.092,10.8,2.815,1.744,6.332,2.184,9.435,2.57,12.579,1.567,25.01,3.054,36.946,4.416,13.9,1.585,28.506,2.457,40.793-5.611,13.4-8.8,19.585-24.04,26.128-40.176,1.507-3.715,3.065-7.558,4.7-11.266A102.718,102.718,0,0,1,174.49,114.9c1.77-2.61,3.742-5.114,5.652-7.535a87.739,87.739,0,0,0,7.986-11.315C192.7,87.9,194.6,78.3,196.266,69.824l7.546-38.3c1.946-9.873,3.02-19.779-2.256-25.377-3.006-3.182-7.5-4.067-11.473-4.648A130.282,130.282,0,0,0,171.248.183" transform="translate(60.479 126.972)" fill="none" stroke="#fff" stroke-width="1"/>
        <path id="Trazado_528" data-name="Trazado 528" d="M94.879,165.653a116.712,116.712,0,0,1-13.548-.966c-10.578-1.249-21.424-2.614-32.237-4.056-2.729-.365-5.822-.779-8.3-2.332-3.353-2.1-5.3-5.9-7.188-9.567-.169-.327-.337-.654-.5-.979C28.82,139.5,23.34,132.107,18.041,124.96c-5.45-7.353-10.6-14.3-14-21.56C-.154,94.451-1.055,86.268,1.208,77.643c2.629-10.028,9.646-20.726,21.452-32.7A101.218,101.218,0,0,1,40.11,30.654C53.886,21.768,68.992,16.338,81.951,12.2c34.773-11.077,61.512-14.486,84.144-10.73,3.458.574,7.365,1.426,9.968,4.274,4.552,4.989,3.614,13.676,1.924,22.321l-6.541,33.48C170,68.956,168.356,77.36,164.4,84.529a78.4,78.4,0,0,1-6.97,10.082c-1.623,2.1-3.3,4.274-4.81,6.533a101.284,101.284,0,0,0-7.6,14.164c-1.309,2.912-2.577,5.921-3.8,8.832-5.8,13.777-11.8,28.019-24.032,35.808-6.916,4.407-14.559,5.705-22.311,5.705M22.836,45.052C11.054,57.008,4.052,67.681,1.429,77.68-.823,86.269.074,94.421,4.253,103.336c3.4,7.248,8.539,14.184,13.983,21.529,5.3,7.155,10.787,14.552,15.075,22.816q.254.488.506.981c1.875,3.648,3.813,7.421,7.118,9.493,2.432,1.524,5.362,1.915,8.2,2.292,10.81,1.444,21.655,2.809,32.232,4.056,12.089,1.426,24.8,2.23,35.686-4.7,12.178-7.755,18.166-21.973,23.957-35.724,1.226-2.91,2.495-5.921,3.8-8.836a101.412,101.412,0,0,1,7.611-14.187c1.514-2.264,3.193-4.439,4.817-6.544a78.192,78.192,0,0,0,6.955-10.06c3.942-7.147,5.581-15.536,7.027-22.939l6.541-33.48c1.683-8.605,2.62-17.25-1.881-22.185-2.556-2.795-6.416-3.634-9.834-4.2C143.462-2.11,116.764,1.3,82.035,12.369,69.091,16.5,54.005,21.925,40.252,30.8A101,101,0,0,0,22.836,45.052" transform="translate(72.801 137.679)" fill="none" stroke="#fff" stroke-width="1"/>
        <path id="Trazado_529" data-name="Trazado 529" d="M80.327,141.992a98.3,98.3,0,0,1-11.882-.884c-9-1.106-18.26-2.35-27.526-3.7-2.437-.355-4.957-.724-7.058-2.058-2.9-1.839-4.589-5.111-6.223-8.275-.134-.263-.269-.522-.4-.781a157.892,157.892,0,0,0-12.166-18.853c-4.715-6.59-9.169-12.813-12.006-19.3C-3.956,72.093.927,57.1,19.389,38.018A86.938,86.938,0,0,1,34.17,25.6C46.2,17.67,59.692,12.9,70.1,9.629,99.2.516,122.732-2.093,142.026,1.651c2.9.561,6.169,1.367,8.325,3.829,3.773,4.324,2.975,11.749,1.547,19.128l-5.537,28.666c-1.22,6.317-2.6,13.477-5.93,19.691a70.277,70.277,0,0,1-5.94,8.833c-1.337,1.783-2.719,3.627-3.975,5.537a96.875,96.875,0,0,0-6.552,12.19c-1.008,2.173-2,4.408-2.956,6.572-5.328,12.034-10.837,24.48-21.813,31.188-5.926,3.622-12.367,4.708-18.868,4.708M19.568,38.129h0C1.16,57.159-3.712,72.1,3.277,88.082c2.829,6.474,7.278,12.69,11.988,19.271a158.044,158.044,0,0,1,12.177,18.874c.135.259.27.52.4.781,1.623,3.143,3.3,6.393,6.153,8.2,2.058,1.306,4.55,1.671,6.959,2.023,9.264,1.344,18.523,2.587,27.519,3.691,10.273,1.26,21.1,2,30.579-3.788,10.923-6.676,16.42-19.093,21.736-31.1.959-2.164,1.949-4.4,2.957-6.576a96.967,96.967,0,0,1,6.564-12.211c1.26-1.914,2.643-3.762,3.981-5.546a70.155,70.155,0,0,0,5.927-8.809c3.317-6.194,4.7-13.341,5.914-19.648l5.537-28.666c1.419-7.34,2.219-14.722-1.509-18.994-2.111-2.411-5.335-3.2-8.192-3.756C122.727-1.9,99.242.7,70.184,9.8c-10.393,3.264-23.863,8.026-35.87,15.94A86.608,86.608,0,0,0,19.568,38.129" transform="translate(85.165 148.348)" fill="none" stroke="#fff" stroke-width="1"/>
        <path id="Trazado_530" data-name="Trazado 530" d="M65.7,118.4a78.76,78.76,0,0,1-10.08-.781c-7.506-.976-15.181-2.1-22.813-3.336a15.052,15.052,0,0,1-5.819-1.785c-2.448-1.581-3.88-4.337-5.263-7l-.294-.565a148.668,148.668,0,0,0-9.247-14.8c-4-5.865-7.772-11.406-10.035-17.154-5.232-13.3-1.035-25.793,14.035-41.789a71.618,71.618,0,0,1,12.11-10.551c7.941-5.389,17.2-9.549,30.025-13.485,23.647-7.228,43.735-8.988,59.7-5.227,2.336.55,4.971,1.31,6.679,3.386,3,3.663,2.335,9.822,1.17,15.933l-4.533,23.851c-1,5.244-2.126,11.188-4.815,16.4a61.783,61.783,0,0,1-4.918,7.6c-1.05,1.46-2.135,2.968-3.133,4.524a97.708,97.708,0,0,0-5.509,10.212c-.632,1.317-1.265,2.666-1.878,3.97-4.9,10.437-9.97,21.229-19.824,26.912A30.54,30.54,0,0,1,65.7,118.4M16.365,31.3h0C1.343,47.24-2.843,59.689,2.365,72.922c2.255,5.731,6.026,11.262,10.017,17.12a148.564,148.564,0,0,1,9.256,14.82l.294.565c1.373,2.644,2.794,5.38,5.2,6.931a14.672,14.672,0,0,0,5.722,1.749c7.63,1.238,15.3,2.358,22.8,3.333,8.094,1.047,17.406,1.774,25.473-2.877,9.8-5.65,14.855-16.416,19.745-26.826.613-1.3,1.246-2.653,1.879-3.97a97.613,97.613,0,0,1,5.518-10.232c1-1.56,2.087-3.071,3.139-4.531a61.57,61.57,0,0,0,4.9-7.58c2.68-5.193,3.808-11.125,4.8-16.358l4.532-23.851c1.157-6.073,1.82-12.193-1.135-15.8-1.666-2.023-4.152-2.744-6.555-3.311C102.04-1.648,82,.11,58.4,7.322,45.6,11.251,36.36,15.4,28.439,20.775A71.407,71.407,0,0,0,16.365,31.3" transform="translate(97.465 158.926)" fill="none" stroke="#fff" stroke-width="1"/>
        <path id="Trazado_531" data-name="Trazado 531" d="M51.23,94.946a60.779,60.779,0,0,1-8.4-.686c-6.04-.847-12.131-1.848-18.1-2.973a12.238,12.238,0,0,1-4.578-1.512c-2-1.324-3.171-3.563-4.305-5.728l-.184-.35c-1.945-3.7-4.142-7.165-6.266-10.512-3.318-5.23-6.453-10.169-8.126-15.25-3.463-10.521.048-20.526,11.744-33.45A57.639,57.639,0,0,1,22.455,15.8c6.379-4.519,14.042-8.014,24.114-11A114.905,114.905,0,0,1,71.461.177a64.057,64.057,0,0,1,22.6,2.146c1.855.561,3.77,1.253,5.032,2.945,2.22,3,1.693,7.892.792,12.736q-1.763,9.518-3.527,19.035c-.772,4.169-1.647,8.9-3.7,13.11a53.359,53.359,0,0,1-3.921,6.429c-.754,1.115-1.534,2.267-2.263,3.447C84.9,62.573,83.517,65.264,82,68.266l-.517,1.028c-4.529,8.986-9.212,18.277-18.121,22.971a25.547,25.547,0,0,1-12.134,2.68M76.834.207A108.4,108.4,0,0,0,46.647,4.969C36.6,7.946,28.963,11.429,22.6,15.933a57.364,57.364,0,0,0-9.4,8.657C1.548,37.466-1.953,47.425,1.491,57.886,3.158,62.951,6.287,67.881,9.6,73.1c2.126,3.35,4.325,6.815,6.272,10.525l.184.35c1.125,2.146,2.286,4.363,4.241,5.657a12,12,0,0,0,4.484,1.476c5.969,1.126,12.056,2.125,18.091,2.973,11.555,1.612,16.619.005,20.367-1.969,8.85-4.662,13.519-13.926,18.035-22.887l.517-1.026c1.517-3.005,2.9-5.7,4.472-8.255.732-1.183,1.514-2.337,2.269-3.452a53.6,53.6,0,0,0,3.908-6.409c2.046-4.2,2.919-8.911,3.691-13.071q1.765-9.518,3.527-19.036c.894-4.808,1.422-9.665-.763-12.615-1.223-1.64-3.1-2.316-4.917-2.866A59.434,59.434,0,0,0,76.834.207" transform="translate(109.727 169.379)" fill="none" stroke="#fff" stroke-width="1"/>
        <path id="Trazado_532" data-name="Trazado 532" d="M36.893,71.78a43.8,43.8,0,0,1-6.757-.611c-4.543-.719-9.05-1.6-13.393-2.616a9.57,9.57,0,0,1-3.335-1.238,11.881,11.881,0,0,1-3.366-4.487l-.054-.1c-1.007-1.9-2.058-3.736-3.074-5.514C4.144,52.364,1.527,47.788.486,43.156c-1.73-7.692,1.1-15.2,9.452-25.108a41.4,41.4,0,0,1,6.768-6.819c4.823-3.658,10.778-6.441,18.21-8.514C48.347-1,61.207-.9,70.194,3a6.879,6.879,0,0,1,3.381,2.5c1.515,2.439,1.008,6.2.414,9.538L71.465,29.255a42.336,42.336,0,0,1-2.591,9.815,45.843,45.843,0,0,1-2.988,5.418c-.44.72-.894,1.462-1.331,2.214-.76,1.314-1.478,2.654-2.237,4.072-.39.727-.783,1.462-1.186,2.2-3.545,6.484-7.965,13.693-15.575,17.12a20.905,20.905,0,0,1-8.663,1.689M10.127,18.151C1.808,28.015-1.008,35.484.71,43.124c1.036,4.606,3.647,9.175,6.411,14.01,1.017,1.78,2.068,3.618,3.077,5.519l.054.1a11.74,11.74,0,0,0,3.306,4.419,9.365,9.365,0,0,0,3.25,1.2c4.336,1.015,8.835,1.894,13.373,2.612,4.736.745,10.254,1.2,15.265-1.059,7.549-3.4,11.948-10.575,15.477-17.034.4-.734.8-1.469,1.186-2.2.76-1.419,1.479-2.761,2.24-4.078.438-.752.893-1.5,1.333-2.216a45.862,45.862,0,0,0,2.979-5.4,42.3,42.3,0,0,0,2.58-9.779l2.523-14.222c.632-3.552,1.022-7.152-.393-9.431a6.681,6.681,0,0,0-3.284-2.421c-8.934-3.866-21.726-3.967-35.1-.27-7.4,2.066-13.328,4.837-18.128,8.475a41.281,41.281,0,0,0-6.735,6.79" transform="translate(121.897 179.561)" fill="none" stroke="#fff" stroke-width="1"/>
        <path id="Trazado_533" data-name="Trazado 533" d="M23.052,49.069a28.235,28.235,0,0,1-5.309-.559,68.569,68.569,0,0,1-8.688-2.259,7.15,7.15,0,0,1-2.087-.965,9.011,9.011,0,0,1-2.35-3.1C2.293,37.886.124,33.284.005,28.8c-.125-4.7,1.95-9.554,7.159-16.755q.291-.405.574-.8A21.574,21.574,0,0,1,11.26,7.094,29.455,29.455,0,0,1,23.568,1.062C32.486-1.1,41.546.1,46.645,4.111a4.979,4.979,0,0,1,1.718,2.053c.7,1.738.383,4.179.033,6.333l-.261,1.61q-.63,3.9-1.257,7.8a37.725,37.725,0,0,1-1.477,6.52,44.266,44.266,0,0,1-2.453,5.387c-.659,1.3-1.44,2.805-2.385,4.3-3.294,5.216-7.5,8.661-12.518,10.239a16.46,16.46,0,0,1-4.993.72M32.32.181a37.022,37.022,0,0,0-8.687,1.056A29.212,29.212,0,0,0,11.426,7.22a21.37,21.37,0,0,0-3.491,4.117c-.19.266-.38.536-.576.806C2.173,19.311.108,24.138.232,28.8c.118,4.447,2.278,9.029,4.6,13.317a8.862,8.862,0,0,0,2.3,3.033,6.93,6.93,0,0,0,2.019.932A68.351,68.351,0,0,0,17.8,48.331c4.1.788,7.333.739,10.167-.154,4.959-1.56,9.13-4.974,12.4-10.149.941-1.49,1.72-2.994,2.376-4.289a44.239,44.239,0,0,0,2.447-5.367,37.752,37.752,0,0,0,1.468-6.495q.628-3.9,1.259-7.794l.259-1.612c.348-2.132.66-4.55-.022-6.25a4.8,4.8,0,0,0-1.662-1.978C43.117,1.587,37.99.181,32.32.181" transform="translate(133.763 189.312)" fill="none" stroke="#fff" stroke-width="1"/>
        <path id="Trazado_534" data-name="Trazado 534" d="M12.08,27.321h-.008c-3.917,0-7.837-1.32-9.985-3.358C.419,22.384-1.107,19.57,1.1,15.144a34.783,34.783,0,0,1,2.15-3.552,24.785,24.785,0,0,0,2.7-4.814c.084-.229.162-.459.238-.69A6.848,6.848,0,0,1,7.373,3.679,11.013,11.013,0,0,1,18.818.447c3.879,1.123,6.25,3.983,5.9,7.121L23.5,18.474c-.2,1.791-.427,3.819-1.942,5.495C19.716,26.006,16,27.321,12.08,27.321M15.584.183a10.3,10.3,0,0,0-8.022,3.6A6.7,6.7,0,0,0,6.405,6.136c-.078.232-.155.464-.24.695A24.919,24.919,0,0,1,3.45,11.677a34.822,34.822,0,0,0-2.14,3.534c-2.165,4.342-.678,7.092.95,8.634,2.107,2,5.958,3.289,9.812,3.293h.008c3.848,0,7.494-1.286,9.291-3.277,1.478-1.635,1.7-3.638,1.9-5.405l1.22-10.907c.395-3.525-2.6-6.022-5.748-6.931A11.514,11.514,0,0,0,15.584.183" transform="translate(144.063 198.35)" fill="none" stroke="#fff" stroke-width="1"/>
      </g>
    </g>
  </g>
</svg>
